<svg xmlns="http://www.w3.org/2000/svg" width="18" height="42" viewBox="116.892629 51.016609 18 42">
<g transform="matrix(0.18 0 0 0.181818 116.892629 51.016609)" shape-rendering="geometricPrecision">
<path fill="#D7DDE1" d="M65 2 h1 v1 h-1 z M60 8 h1 v1 h-1 z M58 10 h1 v1 h-1 z M56 12 h1 v1 h-1 z M50 20 h1 v1 h-1 z M66 20 h1 v1 h-1 z M46 27 h1 v1 h-1 z M43 34 h1 v1 h-1 z M42 37 h1 v1 h-1 z M0 49 h2 v1 h-2 z M0 50 h3 v1 h-3 z M0 51 h4 v1 h-4 z M3 52 h2 v1 h-2 z M0 53 h1 v1 h-1 z M2 53 h2 v1 h-2 z M5 53 h2 v1 h-2 z M0 54 h4 v1 h-4 z M5 54 h3 v1 h-3 z M0 55 h4 v1 h-4 z M5 55 h4 v1 h-4 z M1 56 h9 v1 h-9 z M2 57 h9 v1 h-9 z M90 57 h1 v1 h-1 z M3 58 h7 v1 h-7 z M3 59 h7 v1 h-7 z M12 59 h1 v1 h-1 z M80 59 h1 v1 h-1 z M4 60 h6 v1 h-6 z M13 60 h1 v1 h-1 z M76 60 h1 v1 h-1 z M4 61 h6 v1 h-6 z M12 61 h2 v1 h-2 z M72 61 h1 v1 h-1 z M4 62 h5 v1 h-5 z M13 62 h1 v1 h-1 z M4 63 h5 v1 h-5 z M13 63 h2 v1 h-2 z M5 64 h3 v1 h-3 z M13 64 h1 v1 h-1 z M6 65 h1 v1 h-1 z M12 65 h2 v1 h-2 z M85 65 h1 v1 h-1 z M3 66 h1 v1 h-1 z M7 66 h1 v1 h-1 z M12 66 h1 v1 h-1 z M48 66 h1 v1 h-1 z M3 67 h1 v1 h-1 z M7 67 h1 v1 h-1 z M12 67 h1 v1 h-1 z M16 67 h1 v1 h-1 z M41 67 h1 v1 h-1 z M4 68 h1 v1 h-1 z M11 68 h1 v1 h-1 z M11 69 h1 v1 h-1 z M16 69 h3 v1 h-3 z M59 69 h1 v1 h-1 z M11 70 h1 v1 h-1 z M16 70 h3 v1 h-3 z M10 71 h1 v1 h-1 z M17 71 h3 v1 h-3 z M6 72 h1 v1 h-1 z M10 72 h2 v1 h-2 z M17 72 h3 v1 h-3 z M5 73 h1 v1 h-1 z M11 73 h1 v1 h-1 z M17 73 h4 v1 h-4 z M4 74 h2 v1 h-2 z M11 74 h2 v1 h-2 z M18 74 h3 v1 h-3 z M54 74 h1 v1 h-1 z M4 75 h3 v1 h-3 z M11 75 h11 v1 h-11 z M53 75 h1 v1 h-1 z M5 76 h1 v1 h-1 z M13 76 h9 v1 h-9 z M16 77 h5 v1 h-5 z M22 77 h1 v1 h-1 z M19 78 h2 v1 h-2 z M8 79 h2 v1 h-2 z M19 79 h1 v1 h-1 z M23 80 h1 v1 h-1 z M23 81 h1 v1 h-1 z M24 83 h1 v1 h-1 z M70 83 h1 v1 h-1 z M24 84 h1 v1 h-1 z M2 86 h1 v1 h-1 z M46 87 h1 v1 h-1 z M25 88 h1 v1 h-1 z M25 89 h1 v1 h-1 z M45 89 h1 v1 h-1 z M4 91 h1 v1 h-1 z M5 93 h1 v1 h-1 z M37 95 h1 v1 h-1 z M7 96 h1 v1 h-1 z M26 97 h1 v1 h-1 z M26 98 h1 v1 h-1 z M26 99 h1 v1 h-1 z M14 106 h1 v1 h-1 z M17 110 h1 v1 h-1 z M18 111 h1 v1 h-1 z M19 112 h1 v1 h-1 z M20 113 h1 v1 h-1 z M33 113 h1 v1 h-1 z M36 113 h1 v1 h-1 z M21 114 h1 v1 h-1 z M31 120 h1 v1 h-1 z M34 121 h1 v1 h-1 z M30 124 h1 v1 h-1 z M1 126 h1 v1 h-1 z M25 127 h1 v1 h-1 z M28 127 h1 v1 h-1 z M28 128 h1 v1 h-1 z M68 128 h2 v1 h-2 z M80 128 h2 v1 h-2 z M61 129 h1 v1 h-1 z M86 129 h2 v1 h-2 z M4 130 h1 v1 h-1 z M58 130 h1 v1 h-1 z M92 130 h1 v1 h-1 z M56 131 h1 v1 h-1 z M54 132 h1 v1 h-1 z M6 133 h1 v1 h-1 z M51 134 h1 v1 h-1 z M7 135 h1 v1 h-1 z M95 135 h1 v1 h-1 z M89 137 h1 v1 h-1 z M9 138 h1 v1 h-1 z M10 140 h1 v1 h-1 z M84 141 h1 v1 h-1 z M26 142 h1 v1 h-1 z M43 142 h1 v1 h-1 z M83 142 h1 v1 h-1 z M11 143 h1 v1 h-1 z M12 145 h1 v1 h-1 z M41 145 h1 v1 h-1 z M79 145 h1 v1 h-1 z M28 146 h1 v1 h-1 z M78 146 h1 v1 h-1 z M13 147 h1 v1 h-1 z M77 147 h1 v1 h-1 z M38 149 h1 v1 h-1 z M14 150 h1 v1 h-1 z M72 150 h1 v1 h-1 z M14 151 h1 v1 h-1 z M70 151 h1 v1 h-1 z M36 152 h1 v1 h-1 z M15 154 h1 v1 h-1 z M64 154 h1 v1 h-1 z M35 155 h1 v1 h-1 z M92 155 h1 v1 h-1 z M86 156 h1 v1 h-1 z M78 157 h3 v1 h-3 z M70 158 h2 v1 h-2 z M51 159 h1 v1 h-1 z M67 159 h1 v1 h-1 z M48 160 h1 v1 h-1 z M63 160 h2 v1 h-2 z M45 161 h1 v1 h-1 z M61 161 h1 v1 h-1 z M59 162 h1 v1 h-1 z M57 163 h1 v1 h-1 z M38 164 h1 v1 h-1 z M54 164 h1 v1 h-1 z M88 164 h1 v1 h-1 z M87 165 h1 v1 h-1 z M24 166 h1 v1 h-1 z M51 166 h1 v1 h-1 z M80 166 h2 v1 h-2 z M77 167 h9 v1 h-9 z M48 168 h1 v1 h-1 z M76 168 h9 v1 h-9 z M15 169 h1 v1 h-1 z M28 169 h1 v1 h-1 z M46 169 h1 v1 h-1 z M73 169 h11 v1 h-11 z M64 170 h1 v1 h-1 z M71 170 h5 v1 h-5 z M78 170 h4 v1 h-4 z M43 171 h1 v1 h-1 z M60 171 h3 v1 h-3 z M69 171 h1 v1 h-1 z M80 171 h2 v1 h-2 z M20 172 h1 v1 h-1 z M59 172 h1 v1 h-1 z M61 172 h1 v1 h-1 z M67 172 h2 v1 h-2 z M76 172 h2 v1 h-2 z M80 172 h2 v1 h-2 z M53 173 h2 v1 h-2 z M58 173 h1 v1 h-1 z M60 173 h1 v1 h-1 z M67 173 h2 v1 h-2 z M77 173 h1 v1 h-1 z M80 173 h1 v1 h-1 z M13 174 h1 v1 h-1 z M53 174 h2 v1 h-2 z M57 174 h2 v1 h-2 z M63 174 h1 v1 h-1 z M67 174 h1 v1 h-1 z M79 174 h1 v1 h-1 z M37 175 h1 v1 h-1 z M52 175 h3 v1 h-3 z M57 175 h1 v1 h-1 z M78 175 h1 v1 h-1 z M12 176 h1 v1 h-1 z M51 176 h2 v1 h-2 z M54 176 h2 v1 h-2 z M60 176 h1 v1 h-1 z M76 176 h2 v1 h-2 z M2 177 h1 v1 h-1 z M19 177 h1 v1 h-1 z M51 177 h1 v1 h-1 z M59 177 h1 v1 h-1 z M75 177 h2 v1 h-2 z M3 178 h1 v1 h-1 z M50 178 h3 v1 h-3 z M59 178 h2 v1 h-2 z M62 178 h1 v1 h-1 z M66 178 h3 v1 h-3 z M71 178 h5 v1 h-5 z M4 179 h1 v1 h-1 z M22 179 h1 v1 h-1 z M49 179 h2 v1 h-2 z M68 179 h7 v1 h-7 z M5 180 h1 v1 h-1 z M47 180 h2 v1 h-2 z M66 180 h8 v1 h-8 z M6 181 h1 v1 h-1 z M12 181 h1 v1 h-1 z M47 181 h1 v1 h-1 z M54 181 h2 v1 h-2 z M59 181 h1 v1 h-1 z M61 181 h12 v1 h-12 z M7 182 h1 v1 h-1 z M52 182 h1 v1 h-1 z M64 182 h9 v1 h-9 z M9 183 h1 v1 h-1 z M50 183 h1 v1 h-1 z M65 183 h7 v1 h-7 z M28 184 h1 v1 h-1 z M49 184 h1 v1 h-1 z M65 184 h5 v1 h-5 z M11 185 h1 v1 h-1 z M50 185 h1 v1 h-1 z M64 185 h5 v1 h-5 z M14 186 h1 v1 h-1 z M27 186 h1 v1 h-1 z M52 186 h3 v1 h-3 z M59 186 h1 v1 h-1 z M65 186 h3 v1 h-3 z M54 187 h2 v1 h-2 z M57 187 h5 v1 h-5 z M64 187 h3 v1 h-3 z M12 188 h1 v1 h-1 z M26 188 h1 v1 h-1 z M54 188 h1 v1 h-1 z M57 188 h9 v1 h-9 z M15 189 h2 v1 h-2 z M53 189 h1 v1 h-1 z M57 189 h8 v1 h-8 z M49 190 h12 v1 h-12 z M62 190 h1 v1 h-1 z M49 191 h11 v1 h-11 z M61 191 h1 v1 h-1 z M24 192 h1 v1 h-1 z M48 192 h3 v1 h-3 z M54 192 h3 v1 h-3 z M60 192 h1 v1 h-1 z M12 193 h1 v1 h-1 z M24 193 h1 v1 h-1 z M58 193 h1 v1 h-1 z M12 194 h1 v1 h-1 z M23 194 h1 v1 h-1 z M14 195 h1 v1 h-1 z M23 195 h1 v1 h-1 z M14 196 h1 v1 h-1 z M22 196 h2 v1 h-2 z M54 196 h1 v1 h-1 z M22 197 h1 v1 h-1 z M13 198 h1 v1 h-1 z M11 199 h1 v1 h-1 z M21 199 h1 v1 h-1 z M11 200 h1 v1 h-1 z M13 201 h1 v1 h-1 z M44 201 h1 v1 h-1 z M20 202 h1 v1 h-1 z M42 202 h1 v1 h-1 z M16 203 h1 v1 h-1 z M19 203 h1 v1 h-1 z M40 203 h1 v1 h-1 z M18 204 h1 v1 h-1 z M17 205 h1 v1 h-1 z M35 205 h1 v1 h-1 z M16 206 h1 v1 h-1 z M32 206 h1 v1 h-1 z M9 207 h1 v1 h-1 z M16 207 h1 v1 h-1 z M14 208 h1 v1 h-1 z M25 208 h1 v1 h-1 z M20 209 h2 v1 h-2 z M18 211 h1 v1 h-1 z M18 213 h1 v1 h-1 z M6 217 h1 v1 h-1 z M5 220 h1 v1 h-1 z M6 227 h1 v1 h-1 z M6 228 h1 v1 h-1 z M13 228 h1 v1 h-1 z M6 229 h1 v1 h-1 z M7 230 h3 v1 h-3 z "/>
<path fill="#215067" d="M63 7 h1 v1 h-1 z M63 8 h1 v1 h-1 z M62 9 h2 v1 h-2 z M61 10 h3 v1 h-3 z M60 11 h4 v1 h-4 z M59 12 h4 v1 h-4 z M58 13 h4 v1 h-4 z M58 14 h4 v1 h-4 z M57 15 h5 v1 h-5 z M57 16 h5 v1 h-5 z M56 17 h1 v1 h-1 z M58 17 h4 v1 h-4 z M58 18 h3 v1 h-3 z M55 19 h1 v1 h-1 z M57 19 h4 v1 h-4 z M55 20 h1 v1 h-1 z M57 20 h4 v1 h-4 z M55 21 h5 v1 h-5 z M54 22 h6 v1 h-6 z M54 23 h5 v1 h-5 z M55 24 h4 v1 h-4 z M55 25 h3 v1 h-3 z M55 26 h3 v1 h-3 z M55 27 h3 v1 h-3 z M55 28 h3 v1 h-3 z M54 29 h3 v1 h-3 z M54 30 h3 v1 h-3 z M50 31 h2 v1 h-2 z M53 31 h4 v1 h-4 z M62 31 h1 v1 h-1 z M50 32 h9 v1 h-9 z M62 32 h1 v1 h-1 z M49 33 h11 v1 h-11 z M49 34 h10 v1 h-10 z M50 35 h8 v1 h-8 z M50 36 h6 v1 h-6 z M49 37 h7 v1 h-7 z M50 38 h6 v1 h-6 z M51 39 h3 v1 h-3 z M55 39 h1 v1 h-1 z M51 40 h2 v1 h-2 z M59 40 h1 v1 h-1 z M51 41 h2 v1 h-2 z M51 42 h1 v1 h-1 z M50 43 h2 v1 h-2 z M50 44 h2 v1 h-2 z M50 45 h2 v1 h-2 z M49 46 h2 v1 h-2 z M49 47 h2 v1 h-2 z M48 48 h3 v1 h-3 z M48 49 h3 v1 h-3 z M48 50 h3 v1 h-3 z M47 51 h4 v1 h-4 z M47 52 h3 v1 h-3 z M46 53 h4 v1 h-4 z M45 54 h5 v1 h-5 z M45 55 h4 v1 h-4 z M46 56 h3 v1 h-3 z M45 57 h4 v1 h-4 z M46 58 h3 v1 h-3 z M46 59 h2 v1 h-2 z M86 59 h2 v1 h-2 z M46 60 h2 v1 h-2 z M84 60 h4 v1 h-4 z M45 61 h3 v1 h-3 z M83 61 h4 v1 h-4 z M45 62 h2 v1 h-2 z M82 62 h4 v1 h-4 z M45 63 h2 v1 h-2 z M73 63 h3 v1 h-3 z M80 63 h3 v1 h-3 z M45 64 h2 v1 h-2 z M73 64 h3 v1 h-3 z M79 64 h3 v1 h-3 z M45 65 h2 v1 h-2 z M73 65 h8 v1 h-8 z M44 66 h2 v1 h-2 z M73 66 h6 v1 h-6 z M44 67 h2 v1 h-2 z M75 67 h3 v1 h-3 z M43 68 h2 v1 h-2 z M74 68 h3 v1 h-3 z M43 69 h2 v1 h-2 z M73 69 h2 v1 h-2 z M43 70 h2 v1 h-2 z M71 70 h3 v1 h-3 z M43 71 h1 v1 h-1 z M70 71 h4 v1 h-4 z M43 72 h1 v1 h-1 z M68 72 h3 v1 h-3 z M43 73 h1 v1 h-1 z M67 73 h1 v1 h-1 z M66 74 h1 v1 h-1 z M42 75 h1 v1 h-1 z M65 75 h1 v1 h-1 z M42 76 h1 v1 h-1 z M62 76 h3 v1 h-3 z M42 77 h1 v1 h-1 z M61 77 h3 v1 h-3 z M42 78 h1 v1 h-1 z M60 78 h3 v1 h-3 z M41 79 h2 v1 h-2 z M58 79 h3 v1 h-3 z M41 80 h1 v1 h-1 z M58 80 h1 v1 h-1 z M41 81 h1 v1 h-1 z M57 81 h1 v1 h-1 z M41 82 h1 v1 h-1 z M49 86 h1 v1 h-1 z M49 87 h1 v1 h-1 z M48 88 h1 v1 h-1 z M55 88 h2 v1 h-2 z M47 89 h2 v1 h-2 z M53 89 h2 v1 h-2 z M47 90 h1 v1 h-1 z M46 91 h1 v1 h-1 z M45 92 h1 v1 h-1 z M44 93 h2 v1 h-2 z M44 94 h1 v1 h-1 z M43 95 h1 v1 h-1 z M42 96 h1 v1 h-1 z M38 99 h2 v1 h-2 z M38 100 h1 v1 h-1 z M38 101 h1 v1 h-1 z M18 190 h1 v1 h-1 z "/>
<path fill="#C7D6DE" d="M59 9 h1 v1 h-1 z M66 21 h1 v1 h-1 z M49 22 h1 v1 h-1 z M45 29 h1 v1 h-1 z M65 29 h1 v1 h-1 z M41 41 h1 v1 h-1 z M59 45 h1 v1 h-1 z M40 46 h1 v1 h-1 z M0 56 h1 v1 h-1 z M1 57 h1 v1 h-1 z M87 57 h1 v1 h-1 z M2 58 h1 v1 h-1 z M11 58 h1 v1 h-1 z M84 58 h1 v1 h-1 z M10 59 h2 v1 h-2 z M3 60 h1 v1 h-1 z M10 60 h2 v1 h-2 z M52 60 h1 v1 h-1 z M0 61 h1 v1 h-1 z M10 61 h2 v1 h-2 z M0 62 h2 v1 h-2 z M9 62 h3 v1 h-3 z M87 62 h1 v1 h-1 z M0 63 h2 v1 h-2 z M9 63 h4 v1 h-4 z M40 63 h1 v1 h-1 z M68 63 h1 v1 h-1 z M0 64 h3 v1 h-3 z M4 64 h1 v1 h-1 z M8 64 h5 v1 h-5 z M66 64 h1 v1 h-1 z M0 65 h4 v1 h-4 z M5 65 h1 v1 h-1 z M7 65 h5 v1 h-5 z M0 66 h3 v1 h-3 z M6 66 h1 v1 h-1 z M8 66 h2 v1 h-2 z M11 66 h1 v1 h-1 z M0 67 h3 v1 h-3 z M4 67 h1 v1 h-1 z M8 67 h1 v1 h-1 z M10 67 h2 v1 h-2 z M0 68 h4 v1 h-4 z M7 68 h2 v1 h-2 z M10 68 h1 v1 h-1 z M46 68 h1 v1 h-1 z M0 69 h5 v1 h-5 z M10 69 h1 v1 h-1 z M83 69 h1 v1 h-1 z M0 70 h3 v1 h-3 z M9 70 h2 v1 h-2 z M0 71 h3 v1 h-3 z M82 71 h1 v1 h-1 z M0 72 h6 v1 h-6 z M0 73 h5 v1 h-5 z M7 73 h1 v1 h-1 z M10 73 h1 v1 h-1 z M0 74 h4 v1 h-4 z M10 74 h1 v1 h-1 z M0 75 h4 v1 h-4 z M0 76 h1 v1 h-1 z M2 76 h3 v1 h-3 z M6 76 h2 v1 h-2 z M11 76 h2 v1 h-2 z M3 77 h3 v1 h-3 z M12 77 h4 v1 h-4 z M21 77 h1 v1 h-1 z M0 78 h1 v1 h-1 z M3 78 h6 v1 h-6 z M13 78 h6 v1 h-6 z M21 78 h1 v1 h-1 z M40 78 h1 v1 h-1 z M0 79 h1 v1 h-1 z M3 79 h5 v1 h-5 z M15 79 h4 v1 h-4 z M20 79 h2 v1 h-2 z M0 80 h1 v1 h-1 z M3 80 h7 v1 h-7 z M13 80 h3 v1 h-3 z M17 80 h6 v1 h-6 z M43 80 h1 v1 h-1 z M0 81 h1 v1 h-1 z M4 81 h2 v1 h-2 z M7 81 h3 v1 h-3 z M14 81 h2 v1 h-2 z M18 81 h5 v1 h-5 z M49 81 h1 v1 h-1 z M0 82 h1 v1 h-1 z M18 82 h2 v1 h-2 z M22 82 h2 v1 h-2 z M0 83 h1 v1 h-1 z M22 83 h2 v1 h-2 z M1 84 h1 v1 h-1 z M22 84 h2 v1 h-2 z M22 85 h3 v1 h-3 z M24 86 h1 v1 h-1 z M23 87 h2 v1 h-2 z M3 88 h1 v1 h-1 z M22 88 h1 v1 h-1 z M24 88 h1 v1 h-1 z M60 88 h1 v1 h-1 z M22 89 h1 v1 h-1 z M25 90 h1 v1 h-1 z M55 90 h1 v1 h-1 z M25 91 h1 v1 h-1 z M25 92 h1 v1 h-1 z M6 94 h1 v1 h-1 z M9 99 h1 v1 h-1 z M26 100 h1 v1 h-1 z M26 101 h1 v1 h-1 z M11 102 h1 v1 h-1 z M15 107 h1 v1 h-1 z M26 107 h1 v1 h-1 z M25 110 h1 v1 h-1 z M27 123 h1 v1 h-1 z M0 126 h1 v1 h-1 z M1 127 h1 v1 h-1 z M2 128 h1 v1 h-1 z M70 128 h3 v1 h-3 z M77 128 h3 v1 h-3 z M3 129 h1 v1 h-1 z M29 129 h1 v1 h-1 z M62 129 h1 v1 h-1 z M85 129 h1 v1 h-1 z M59 130 h1 v1 h-1 z M91 130 h1 v1 h-1 z M57 131 h1 v1 h-1 z M94 131 h1 v1 h-1 z M5 132 h1 v1 h-1 z M31 132 h1 v1 h-1 z M55 132 h1 v1 h-1 z M53 133 h1 v1 h-1 z M0 134 h1 v1 h-1 z M6 134 h1 v1 h-1 z M0 135 h1 v1 h-1 z M3 135 h2 v1 h-2 z M0 136 h1 v1 h-1 z M3 136 h2 v1 h-2 z M7 136 h1 v1 h-1 z M26 136 h1 v1 h-1 z M91 136 h1 v1 h-1 z M0 137 h5 v1 h-5 z M7 137 h2 v1 h-2 z M26 137 h1 v1 h-1 z M48 137 h1 v1 h-1 z M0 138 h5 v1 h-5 z M47 138 h1 v1 h-1 z M87 138 h1 v1 h-1 z M0 139 h5 v1 h-5 z M9 139 h1 v1 h-1 z M46 139 h1 v1 h-1 z M86 139 h1 v1 h-1 z M0 140 h1 v1 h-1 z M3 140 h2 v1 h-2 z M45 140 h1 v1 h-1 z M55 140 h2 v1 h-2 z M85 140 h1 v1 h-1 z M3 141 h3 v1 h-3 z M10 141 h1 v1 h-1 z M44 141 h1 v1 h-1 z M3 142 h2 v1 h-2 z M10 142 h1 v1 h-1 z M4 143 h1 v1 h-1 z M81 143 h1 v1 h-1 z M0 144 h1 v1 h-1 z M2 144 h2 v1 h-2 z M11 144 h1 v1 h-1 z M42 144 h1 v1 h-1 z M80 144 h1 v1 h-1 z M12 146 h1 v1 h-1 z M40 147 h1 v1 h-1 z M13 148 h1 v1 h-1 z M75 148 h1 v1 h-1 z M37 151 h1 v1 h-1 z M14 152 h1 v1 h-1 z M68 152 h1 v1 h-1 z M26 155 h1 v1 h-1 z M15 156 h1 v1 h-1 z M23 157 h1 v1 h-1 z M34 158 h1 v1 h-1 z M44 161 h1 v1 h-1 z M41 162 h1 v1 h-1 z M36 165 h1 v1 h-1 z M15 167 h1 v1 h-1 z M15 168 h1 v1 h-1 z M14 171 h1 v1 h-1 z M13 172 h1 v1 h-1 z M0 173 h1 v1 h-1 z M11 173 h1 v1 h-1 z M13 173 h1 v1 h-1 z M0 174 h2 v1 h-2 z M11 174 h2 v1 h-2 z M1 175 h1 v1 h-1 z M12 175 h1 v1 h-1 z M2 176 h1 v1 h-1 z M3 177 h1 v1 h-1 z M4 178 h1 v1 h-1 z M8 180 h2 v1 h-2 z M9 181 h1 v1 h-1 z M9 182 h2 v1 h-2 z M17 186 h1 v1 h-1 z M15 193 h1 v1 h-1 z M14 194 h1 v1 h-1 z M14 197 h1 v1 h-1 z M11 201 h1 v1 h-1 z M11 202 h1 v1 h-1 z M12 203 h1 v1 h-1 z M10 205 h1 v1 h-1 z M14 207 h1 v1 h-1 z M13 214 h1 v1 h-1 z M11 216 h1 v1 h-1 z M7 229 h1 v1 h-1 z "/>
<path fill="#7394A5" d="M64 5 h1 v1 h-1 z M62 7 h1 v1 h-1 z M61 8 h1 v1 h-1 z M59 10 h1 v1 h-1 z M58 11 h1 v1 h-1 z M65 15 h1 v1 h-1 z M54 16 h1 v1 h-1 z M65 16 h1 v1 h-1 z M53 17 h1 v1 h-1 z M65 17 h1 v1 h-1 z M65 18 h1 v1 h-1 z M65 19 h1 v1 h-1 z M51 20 h1 v1 h-1 z M65 20 h1 v1 h-1 z M51 21 h1 v1 h-1 z M65 21 h1 v1 h-1 z M50 22 h1 v1 h-1 z M65 22 h1 v1 h-1 z M65 23 h1 v1 h-1 z M49 24 h1 v1 h-1 z M65 24 h1 v1 h-1 z M48 25 h1 v1 h-1 z M65 25 h1 v1 h-1 z M48 26 h1 v1 h-1 z M65 26 h1 v1 h-1 z M47 27 h1 v1 h-1 z M65 27 h1 v1 h-1 z M47 28 h1 v1 h-1 z M52 28 h2 v1 h-2 z M46 29 h1 v1 h-1 z M52 29 h1 v1 h-1 z M64 29 h1 v1 h-1 z M46 30 h1 v1 h-1 z M64 30 h1 v1 h-1 z M45 31 h1 v1 h-1 z M45 32 h1 v1 h-1 z M63 32 h1 v1 h-1 z M63 33 h1 v1 h-1 z M44 34 h1 v1 h-1 z M62 35 h1 v1 h-1 z M43 36 h1 v1 h-1 z M43 37 h1 v1 h-1 z M61 37 h1 v1 h-1 z M42 40 h1 v1 h-1 z M60 40 h1 v1 h-1 z M42 41 h1 v1 h-1 z M47 42 h1 v1 h-1 z M53 42 h1 v1 h-1 z M46 43 h4 v1 h-4 z M53 43 h1 v1 h-1 z M59 43 h1 v1 h-1 z M44 44 h5 v1 h-5 z M52 44 h2 v1 h-2 z M41 45 h1 v1 h-1 z M43 45 h6 v1 h-6 z M52 45 h1 v1 h-1 z M58 45 h1 v1 h-1 z M41 46 h1 v1 h-1 z M43 46 h3 v1 h-3 z M47 46 h2 v1 h-2 z M41 47 h4 v1 h-4 z M57 47 h1 v1 h-1 z M41 48 h4 v1 h-4 z M57 48 h1 v1 h-1 z M41 49 h4 v1 h-4 z M41 50 h4 v1 h-4 z M56 50 h1 v1 h-1 z M41 51 h3 v1 h-3 z M41 52 h3 v1 h-3 z M55 52 h1 v1 h-1 z M41 53 h3 v1 h-3 z M41 54 h3 v1 h-3 z M54 54 h1 v1 h-1 z M41 55 h3 v1 h-3 z M41 56 h3 v1 h-3 z M53 56 h1 v1 h-1 z M41 57 h3 v1 h-3 z M52 57 h1 v1 h-1 z M41 58 h3 v1 h-3 z M52 58 h1 v1 h-1 z M86 58 h1 v1 h-1 z M89 58 h1 v1 h-1 z M42 59 h3 v1 h-3 z M51 59 h1 v1 h-1 z M83 59 h1 v1 h-1 z M42 60 h3 v1 h-3 z M51 60 h1 v1 h-1 z M80 60 h3 v1 h-3 z M88 60 h1 v1 h-1 z M43 61 h2 v1 h-2 z M74 61 h4 v1 h-4 z M87 61 h1 v1 h-1 z M41 62 h1 v1 h-1 z M43 62 h1 v1 h-1 z M50 62 h1 v1 h-1 z M71 62 h2 v1 h-2 z M41 63 h1 v1 h-1 z M43 63 h1 v1 h-1 z M49 63 h1 v1 h-1 z M69 63 h1 v1 h-1 z M85 63 h1 v1 h-1 z M41 64 h1 v1 h-1 z M43 64 h1 v1 h-1 z M68 64 h1 v1 h-1 z M83 64 h1 v1 h-1 z M66 65 h2 v1 h-2 z M82 65 h2 v1 h-2 z M42 66 h1 v1 h-1 z M64 66 h1 v1 h-1 z M67 66 h2 v1 h-2 z M80 66 h4 v1 h-4 z M46 67 h1 v1 h-1 z M63 67 h1 v1 h-1 z M66 67 h3 v1 h-3 z M79 67 h4 v1 h-4 z M61 68 h1 v1 h-1 z M66 68 h3 v1 h-3 z M79 68 h4 v1 h-4 z M6 69 h1 v1 h-1 z M45 69 h1 v1 h-1 z M60 69 h1 v1 h-1 z M65 69 h4 v1 h-4 z M82 69 h1 v1 h-1 z M5 70 h1 v1 h-1 z M59 70 h1 v1 h-1 z M66 70 h4 v1 h-4 z M6 71 h1 v1 h-1 z M42 71 h1 v1 h-1 z M65 71 h4 v1 h-4 z M81 71 h1 v1 h-1 z M42 72 h1 v1 h-1 z M44 72 h1 v1 h-1 z M65 72 h2 v1 h-2 z M77 72 h2 v1 h-2 z M80 72 h1 v1 h-1 z M64 73 h2 v1 h-2 z M70 73 h1 v1 h-1 z M76 73 h2 v1 h-2 z M80 73 h1 v1 h-1 z M55 74 h1 v1 h-1 z M68 74 h5 v1 h-5 z M79 74 h1 v1 h-1 z M54 75 h1 v1 h-1 z M69 75 h6 v1 h-6 z M9 76 h1 v1 h-1 z M41 76 h1 v1 h-1 z M66 76 h8 v1 h-8 z M9 77 h1 v1 h-1 z M43 77 h1 v1 h-1 z M53 77 h1 v1 h-1 z M67 77 h6 v1 h-6 z M52 78 h1 v1 h-1 z M68 78 h4 v1 h-4 z M75 78 h1 v1 h-1 z M51 79 h4 v1 h-4 z M74 79 h1 v1 h-1 z M51 80 h5 v1 h-5 z M72 80 h1 v1 h-1 z M11 81 h2 v1 h-2 z M40 81 h1 v1 h-1 z M42 81 h1 v1 h-1 z M50 81 h1 v1 h-1 z M53 81 h2 v1 h-2 z M71 81 h1 v1 h-1 z M11 82 h2 v1 h-2 z M42 82 h1 v1 h-1 z M70 82 h1 v1 h-1 z M12 83 h2 v1 h-2 z M49 83 h1 v1 h-1 z M68 83 h1 v1 h-1 z M12 84 h2 v1 h-2 z M67 84 h1 v1 h-1 z M13 85 h2 v1 h-2 z M48 85 h1 v1 h-1 z M65 85 h1 v1 h-1 z M13 86 h2 v1 h-2 z M39 86 h1 v1 h-1 z M41 86 h1 v1 h-1 z M62 86 h2 v1 h-2 z M14 87 h2 v1 h-2 z M39 87 h1 v1 h-1 z M47 87 h1 v1 h-1 z M14 88 h2 v1 h-2 z M58 88 h1 v1 h-1 z M14 89 h2 v1 h-2 z M46 89 h1 v1 h-1 z M56 89 h1 v1 h-1 z M15 90 h2 v1 h-2 z M40 90 h1 v1 h-1 z M54 90 h1 v1 h-1 z M15 91 h3 v1 h-3 z M38 91 h1 v1 h-1 z M40 91 h1 v1 h-1 z M51 91 h1 v1 h-1 z M16 92 h2 v1 h-2 z M38 92 h1 v1 h-1 z M44 92 h1 v1 h-1 z M49 92 h1 v1 h-1 z M16 93 h2 v1 h-2 z M38 93 h1 v1 h-1 z M43 93 h1 v1 h-1 z M47 93 h1 v1 h-1 z M16 94 h2 v1 h-2 z M17 95 h1 v1 h-1 z M44 95 h1 v1 h-1 z M39 96 h1 v1 h-1 z M43 96 h1 v1 h-1 z M39 97 h2 v1 h-2 z M42 97 h1 v1 h-1 z M18 98 h1 v1 h-1 z M37 98 h1 v1 h-1 z M41 98 h1 v1 h-1 z M18 99 h2 v1 h-2 z M37 99 h1 v1 h-1 z M40 99 h1 v1 h-1 z M18 100 h2 v1 h-2 z M37 100 h1 v1 h-1 z M18 101 h1 v1 h-1 z M20 101 h1 v1 h-1 z M39 101 h1 v1 h-1 z M19 102 h2 v1 h-2 z M19 103 h1 v1 h-1 z M38 103 h1 v1 h-1 z M19 104 h1 v1 h-1 z M21 104 h1 v1 h-1 z M36 104 h1 v1 h-1 z M38 104 h1 v1 h-1 z M19 105 h1 v1 h-1 z M21 105 h1 v1 h-1 z M19 106 h1 v1 h-1 z M22 106 h1 v1 h-1 z M24 106 h1 v1 h-1 z M18 107 h2 v1 h-2 z M22 107 h3 v1 h-3 z M37 107 h1 v1 h-1 z M18 108 h3 v1 h-3 z M22 108 h3 v1 h-3 z M35 108 h1 v1 h-1 z M18 109 h3 v1 h-3 z M23 109 h1 v1 h-1 z M20 110 h1 v1 h-1 z M23 110 h1 v1 h-1 z M21 111 h1 v1 h-1 z M23 111 h1 v1 h-1 z M36 111 h1 v1 h-1 z M21 112 h1 v1 h-1 z M23 112 h1 v1 h-1 z M34 112 h1 v1 h-1 z M22 113 h1 v1 h-1 z M22 114 h1 v1 h-1 z M35 114 h1 v1 h-1 z M23 115 h2 v1 h-2 z M33 115 h1 v1 h-1 z M24 116 h1 v1 h-1 z M24 117 h1 v1 h-1 z M24 118 h2 v1 h-2 z M34 118 h1 v1 h-1 z M25 119 h1 v1 h-1 z M32 119 h1 v1 h-1 z M25 120 h1 v1 h-1 z M25 121 h1 v1 h-1 z M33 122 h1 v1 h-1 z M26 123 h1 v1 h-1 z M31 123 h1 v1 h-1 z M26 124 h1 v1 h-1 z M31 124 h1 v1 h-1 z M26 125 h1 v1 h-1 z M32 125 h1 v1 h-1 z M26 126 h1 v1 h-1 z M32 126 h1 v1 h-1 z M26 127 h2 v1 h-2 z M30 127 h1 v1 h-1 z M27 128 h1 v1 h-1 z M30 128 h1 v1 h-1 z M27 129 h1 v1 h-1 z M31 129 h1 v1 h-1 z M27 130 h1 v1 h-1 z M31 130 h1 v1 h-1 z M27 131 h1 v1 h-1 z M29 131 h1 v1 h-1 z M27 132 h1 v1 h-1 z M27 133 h2 v1 h-2 z M30 133 h1 v1 h-1 z M96 133 h1 v1 h-1 z M27 134 h1 v1 h-1 z M30 134 h1 v1 h-1 z M27 135 h1 v1 h-1 z M79 135 h3 v1 h-3 z M27 136 h1 v1 h-1 z M29 136 h1 v1 h-1 z M77 136 h5 v1 h-5 z M27 137 h1 v1 h-1 z M27 138 h1 v1 h-1 z M60 138 h1 v1 h-1 z M67 138 h7 v1 h-7 z M27 139 h1 v1 h-1 z M59 139 h2 v1 h-2 z M65 139 h6 v1 h-6 z M27 140 h2 v1 h-2 z M59 140 h2 v1 h-2 z M62 140 h3 v1 h-3 z M27 141 h2 v1 h-2 z M58 141 h3 v1 h-3 z M27 142 h2 v1 h-2 z M56 142 h3 v1 h-3 z M27 143 h1 v1 h-1 z M52 143 h4 v1 h-4 z M27 144 h1 v1 h-1 z M50 144 h3 v1 h-3 z M26 145 h1 v1 h-1 z M49 145 h2 v1 h-2 z M26 146 h2 v1 h-2 z M47 146 h2 v1 h-2 z M27 147 h1 v1 h-1 z M46 147 h2 v1 h-2 z M27 148 h1 v1 h-1 z M45 148 h2 v1 h-2 z M25 149 h1 v1 h-1 z M44 149 h1 v1 h-1 z M0 150 h2 v1 h-2 z M25 150 h1 v1 h-1 z M43 150 h1 v1 h-1 z M0 151 h1 v1 h-1 z M2 151 h1 v1 h-1 z M41 151 h2 v1 h-2 z M1 152 h1 v1 h-1 z M26 152 h1 v1 h-1 z M41 152 h1 v1 h-1 z M2 153 h2 v1 h-2 z M26 153 h1 v1 h-1 z M39 153 h2 v1 h-2 z M3 154 h1 v1 h-1 z M24 154 h1 v1 h-1 z M38 154 h2 v1 h-2 z M3 155 h1 v1 h-1 z M24 155 h1 v1 h-1 z M38 155 h1 v1 h-1 z M4 156 h1 v1 h-1 z M24 156 h2 v1 h-2 z M37 156 h1 v1 h-1 z M4 157 h1 v1 h-1 z M25 157 h1 v1 h-1 z M36 157 h1 v1 h-1 z M4 158 h2 v1 h-2 z M25 158 h1 v1 h-1 z M5 159 h1 v1 h-1 z M35 159 h1 v1 h-1 z M5 160 h1 v1 h-1 z M23 160 h1 v1 h-1 z M34 160 h1 v1 h-1 z M6 161 h1 v1 h-1 z M23 161 h2 v1 h-2 z M34 161 h1 v1 h-1 z M6 162 h1 v1 h-1 z M24 162 h1 v1 h-1 z M33 162 h1 v1 h-1 z M32 163 h2 v1 h-2 z M6 164 h2 v1 h-2 z M31 164 h2 v1 h-2 z M7 165 h1 v1 h-1 z M22 165 h1 v1 h-1 z M31 165 h2 v1 h-2 z M7 166 h1 v1 h-1 z M22 166 h2 v1 h-2 z M30 166 h1 v1 h-1 z M32 166 h2 v1 h-2 z M7 167 h2 v1 h-2 z M22 167 h2 v1 h-2 z M30 167 h1 v1 h-1 z M32 167 h2 v1 h-2 z M8 168 h1 v1 h-1 z M23 168 h1 v1 h-1 z M31 168 h2 v1 h-2 z M8 169 h1 v1 h-1 z M23 169 h1 v1 h-1 z M29 169 h1 v1 h-1 z M31 169 h1 v1 h-1 z M69 169 h2 v1 h-2 z M8 170 h1 v1 h-1 z M29 170 h2 v1 h-2 z M21 171 h1 v1 h-1 z M28 171 h1 v1 h-1 z M21 172 h2 v1 h-2 z M28 172 h2 v1 h-2 z M21 173 h2 v1 h-2 z M27 173 h2 v1 h-2 z M22 174 h1 v1 h-1 z M27 174 h1 v1 h-1 z M27 175 h1 v1 h-1 z M20 176 h1 v1 h-1 z M26 176 h1 v1 h-1 z M20 177 h1 v1 h-1 z M26 177 h1 v1 h-1 z M25 178 h1 v1 h-1 z M54 178 h2 v1 h-2 z M21 179 h1 v1 h-1 z M25 179 h1 v1 h-1 z M54 179 h1 v1 h-1 z M19 180 h1 v1 h-1 z M21 180 h1 v1 h-1 z M24 180 h2 v1 h-2 z M19 181 h1 v1 h-1 z M24 181 h1 v1 h-1 z M23 182 h2 v1 h-2 z M23 183 h1 v1 h-1 z M20 184 h1 v1 h-1 z M22 184 h2 v1 h-2 z M18 185 h1 v1 h-1 z M20 185 h3 v1 h-3 z M18 186 h1 v1 h-1 z M21 186 h2 v1 h-2 z M43 186 h2 v1 h-2 z M21 187 h1 v1 h-1 z M42 187 h3 v1 h-3 z M17 188 h1 v1 h-1 z M17 189 h1 v1 h-1 z M20 189 h1 v1 h-1 z M19 191 h1 v1 h-1 z M35 192 h1 v1 h-1 z M16 193 h1 v1 h-1 z M18 193 h1 v1 h-1 z M16 194 h1 v1 h-1 z M18 194 h1 v1 h-1 z M31 195 h1 v1 h-1 z M15 196 h1 v1 h-1 z M17 196 h1 v1 h-1 z M15 197 h1 v1 h-1 z M17 197 h1 v1 h-1 z M16 200 h1 v1 h-1 z M14 201 h1 v1 h-1 z M14 202 h1 v1 h-1 z M15 203 h1 v1 h-1 z M13 204 h1 v1 h-1 z M13 205 h2 v1 h-2 z M12 207 h2 v1 h-2 z M11 208 h2 v1 h-2 z M10 209 h3 v1 h-3 z M10 210 h1 v1 h-1 z M12 210 h1 v1 h-1 z M9 211 h1 v1 h-1 z M9 212 h1 v1 h-1 z M11 212 h1 v1 h-1 z M9 213 h2 v1 h-2 z M8 214 h1 v1 h-1 z M10 214 h1 v1 h-1 z M10 215 h1 v1 h-1 z M7 216 h1 v1 h-1 z M7 217 h1 v1 h-1 z M9 217 h1 v1 h-1 z M7 218 h1 v1 h-1 z M8 219 h1 v1 h-1 z M6 220 h1 v1 h-1 z M8 220 h1 v1 h-1 z M5 222 h1 v1 h-1 z M7 222 h1 v1 h-1 z M5 223 h1 v1 h-1 z M4 225 h1 v1 h-1 z M6 225 h1 v1 h-1 z M4 226 h1 v1 h-1 z M5 227 h1 v1 h-1 z M3 228 h1 v1 h-1 z M3 230 h1 v1 h-1 z "/>
<path fill="#49768E" d="M63 6 h2 v1 h-2 z M64 7 h1 v1 h-1 z M62 8 h1 v1 h-1 z M64 8 h1 v1 h-1 z M61 9 h1 v1 h-1 z M64 9 h1 v1 h-1 z M60 10 h1 v1 h-1 z M64 10 h1 v1 h-1 z M59 11 h1 v1 h-1 z M64 11 h1 v1 h-1 z M58 12 h1 v1 h-1 z M63 12 h2 v1 h-2 z M57 13 h1 v1 h-1 z M62 13 h3 v1 h-3 z M56 14 h2 v1 h-2 z M62 14 h3 v1 h-3 z M55 15 h2 v1 h-2 z M62 15 h3 v1 h-3 z M55 16 h2 v1 h-2 z M62 16 h3 v1 h-3 z M54 17 h2 v1 h-2 z M57 17 h1 v1 h-1 z M62 17 h3 v1 h-3 z M53 18 h5 v1 h-5 z M61 18 h4 v1 h-4 z M52 19 h3 v1 h-3 z M56 19 h1 v1 h-1 z M61 19 h4 v1 h-4 z M52 20 h3 v1 h-3 z M56 20 h1 v1 h-1 z M61 20 h4 v1 h-4 z M52 21 h3 v1 h-3 z M60 21 h5 v1 h-5 z M51 22 h3 v1 h-3 z M60 22 h5 v1 h-5 z M50 23 h4 v1 h-4 z M59 23 h6 v1 h-6 z M50 24 h5 v1 h-5 z M59 24 h6 v1 h-6 z M49 25 h6 v1 h-6 z M58 25 h7 v1 h-7 z M49 26 h6 v1 h-6 z M58 26 h7 v1 h-7 z M48 27 h7 v1 h-7 z M58 27 h7 v1 h-7 z M48 28 h4 v1 h-4 z M54 28 h1 v1 h-1 z M58 28 h7 v1 h-7 z M47 29 h5 v1 h-5 z M53 29 h1 v1 h-1 z M57 29 h7 v1 h-7 z M47 30 h7 v1 h-7 z M57 30 h7 v1 h-7 z M46 31 h4 v1 h-4 z M52 31 h1 v1 h-1 z M57 31 h5 v1 h-5 z M63 31 h1 v1 h-1 z M46 32 h4 v1 h-4 z M59 32 h3 v1 h-3 z M45 33 h4 v1 h-4 z M60 33 h3 v1 h-3 z M45 34 h4 v1 h-4 z M59 34 h4 v1 h-4 z M44 35 h6 v1 h-6 z M58 35 h4 v1 h-4 z M44 36 h6 v1 h-6 z M56 36 h6 v1 h-6 z M44 37 h5 v1 h-5 z M56 37 h5 v1 h-5 z M43 38 h7 v1 h-7 z M56 38 h5 v1 h-5 z M43 39 h8 v1 h-8 z M54 39 h1 v1 h-1 z M56 39 h5 v1 h-5 z M43 40 h8 v1 h-8 z M53 40 h6 v1 h-6 z M43 41 h8 v1 h-8 z M53 41 h7 v1 h-7 z M42 42 h5 v1 h-5 z M48 42 h3 v1 h-3 z M52 42 h1 v1 h-1 z M54 42 h6 v1 h-6 z M42 43 h4 v1 h-4 z M52 43 h1 v1 h-1 z M54 43 h5 v1 h-5 z M42 44 h2 v1 h-2 z M49 44 h1 v1 h-1 z M54 44 h5 v1 h-5 z M42 45 h1 v1 h-1 z M49 45 h1 v1 h-1 z M53 45 h5 v1 h-5 z M42 46 h1 v1 h-1 z M46 46 h1 v1 h-1 z M51 46 h7 v1 h-7 z M45 47 h4 v1 h-4 z M51 47 h6 v1 h-6 z M45 48 h3 v1 h-3 z M51 48 h6 v1 h-6 z M45 49 h3 v1 h-3 z M51 49 h6 v1 h-6 z M45 50 h3 v1 h-3 z M51 50 h5 v1 h-5 z M44 51 h3 v1 h-3 z M51 51 h5 v1 h-5 z M44 52 h3 v1 h-3 z M50 52 h5 v1 h-5 z M44 53 h2 v1 h-2 z M50 53 h5 v1 h-5 z M44 54 h1 v1 h-1 z M50 54 h4 v1 h-4 z M44 55 h1 v1 h-1 z M49 55 h5 v1 h-5 z M44 56 h2 v1 h-2 z M49 56 h4 v1 h-4 z M44 57 h1 v1 h-1 z M49 57 h3 v1 h-3 z M44 58 h2 v1 h-2 z M49 58 h3 v1 h-3 z M87 58 h2 v1 h-2 z M41 59 h1 v1 h-1 z M45 59 h1 v1 h-1 z M48 59 h3 v1 h-3 z M84 59 h2 v1 h-2 z M88 59 h1 v1 h-1 z M41 60 h1 v1 h-1 z M45 60 h1 v1 h-1 z M48 60 h3 v1 h-3 z M83 60 h1 v1 h-1 z M41 61 h2 v1 h-2 z M48 61 h3 v1 h-3 z M78 61 h5 v1 h-5 z M42 62 h1 v1 h-1 z M44 62 h1 v1 h-1 z M47 62 h3 v1 h-3 z M73 62 h9 v1 h-9 z M86 62 h1 v1 h-1 z M42 63 h1 v1 h-1 z M44 63 h1 v1 h-1 z M47 63 h2 v1 h-2 z M70 63 h3 v1 h-3 z M76 63 h4 v1 h-4 z M83 63 h2 v1 h-2 z M42 64 h1 v1 h-1 z M44 64 h1 v1 h-1 z M47 64 h2 v1 h-2 z M69 64 h4 v1 h-4 z M76 64 h3 v1 h-3 z M82 64 h1 v1 h-1 z M42 65 h3 v1 h-3 z M47 65 h1 v1 h-1 z M68 65 h5 v1 h-5 z M81 65 h1 v1 h-1 z M43 66 h1 v1 h-1 z M46 66 h1 v1 h-1 z M65 66 h2 v1 h-2 z M69 66 h4 v1 h-4 z M79 66 h1 v1 h-1 z M43 67 h1 v1 h-1 z M64 67 h2 v1 h-2 z M69 67 h6 v1 h-6 z M78 67 h1 v1 h-1 z M45 68 h1 v1 h-1 z M62 68 h4 v1 h-4 z M69 68 h5 v1 h-5 z M77 68 h2 v1 h-2 z M61 69 h4 v1 h-4 z M69 69 h4 v1 h-4 z M75 69 h7 v1 h-7 z M6 70 h1 v1 h-1 z M60 70 h6 v1 h-6 z M70 70 h1 v1 h-1 z M74 70 h8 v1 h-8 z M44 71 h1 v1 h-1 z M59 71 h6 v1 h-6 z M69 71 h1 v1 h-1 z M74 71 h7 v1 h-7 z M58 72 h7 v1 h-7 z M67 72 h1 v1 h-1 z M71 72 h6 v1 h-6 z M79 72 h1 v1 h-1 z M42 73 h1 v1 h-1 z M57 73 h7 v1 h-7 z M66 73 h1 v1 h-1 z M68 73 h2 v1 h-2 z M71 73 h5 v1 h-5 z M78 73 h2 v1 h-2 z M42 74 h2 v1 h-2 z M56 74 h10 v1 h-10 z M67 74 h1 v1 h-1 z M73 74 h6 v1 h-6 z M43 75 h1 v1 h-1 z M55 75 h10 v1 h-10 z M66 75 h1 v1 h-1 z M75 75 h4 v1 h-4 z M43 76 h1 v1 h-1 z M54 76 h8 v1 h-8 z M65 76 h1 v1 h-1 z M74 76 h4 v1 h-4 z M41 77 h1 v1 h-1 z M54 77 h7 v1 h-7 z M64 77 h3 v1 h-3 z M73 77 h4 v1 h-4 z M41 78 h1 v1 h-1 z M53 78 h7 v1 h-7 z M63 78 h5 v1 h-5 z M72 78 h3 v1 h-3 z M55 79 h3 v1 h-3 z M61 79 h13 v1 h-13 z M42 80 h1 v1 h-1 z M56 80 h2 v1 h-2 z M59 80 h13 v1 h-13 z M51 81 h2 v1 h-2 z M55 81 h2 v1 h-2 z M58 81 h13 v1 h-13 z M40 82 h1 v1 h-1 z M50 82 h20 v1 h-20 z M40 83 h2 v1 h-2 z M50 83 h18 v1 h-18 z M40 84 h2 v1 h-2 z M49 84 h18 v1 h-18 z M40 85 h2 v1 h-2 z M49 85 h16 v1 h-16 z M40 86 h1 v1 h-1 z M48 86 h1 v1 h-1 z M50 86 h12 v1 h-12 z M40 87 h1 v1 h-1 z M48 87 h1 v1 h-1 z M50 87 h11 v1 h-11 z M39 88 h2 v1 h-2 z M47 88 h1 v1 h-1 z M49 88 h6 v1 h-6 z M57 88 h1 v1 h-1 z M39 89 h2 v1 h-2 z M49 89 h4 v1 h-4 z M55 89 h1 v1 h-1 z M39 90 h1 v1 h-1 z M46 90 h1 v1 h-1 z M48 90 h6 v1 h-6 z M39 91 h1 v1 h-1 z M45 91 h1 v1 h-1 z M47 91 h4 v1 h-4 z M39 92 h1 v1 h-1 z M46 92 h3 v1 h-3 z M39 93 h1 v1 h-1 z M46 93 h1 v1 h-1 z M38 94 h2 v1 h-2 z M43 94 h1 v1 h-1 z M45 94 h1 v1 h-1 z M38 95 h2 v1 h-2 z M42 95 h1 v1 h-1 z M38 96 h1 v1 h-1 z M41 96 h1 v1 h-1 z M38 97 h1 v1 h-1 z M41 97 h1 v1 h-1 z M38 98 h3 v1 h-3 z M39 100 h1 v1 h-1 z M19 101 h1 v1 h-1 z M37 101 h1 v1 h-1 z M37 102 h2 v1 h-2 z M20 103 h1 v1 h-1 z M37 103 h1 v1 h-1 z M20 104 h1 v1 h-1 z M37 104 h1 v1 h-1 z M20 105 h1 v1 h-1 z M36 105 h2 v1 h-2 z M20 106 h2 v1 h-2 z M36 106 h2 v1 h-2 z M20 107 h2 v1 h-2 z M36 107 h1 v1 h-1 z M21 108 h1 v1 h-1 z M36 108 h1 v1 h-1 z M21 109 h2 v1 h-2 z M35 109 h2 v1 h-2 z M21 110 h2 v1 h-2 z M35 110 h2 v1 h-2 z M22 111 h1 v1 h-1 z M35 111 h1 v1 h-1 z M22 112 h1 v1 h-1 z M35 112 h1 v1 h-1 z M23 113 h1 v1 h-1 z M34 113 h2 v1 h-2 z M23 114 h1 v1 h-1 z M34 114 h1 v1 h-1 z M34 115 h1 v1 h-1 z M33 116 h2 v1 h-2 z M33 117 h2 v1 h-2 z M33 118 h1 v1 h-1 z M33 119 h1 v1 h-1 z M32 120 h2 v1 h-2 z M32 121 h2 v1 h-2 z M32 122 h1 v1 h-1 z M32 123 h1 v1 h-1 z M32 124 h1 v1 h-1 z M31 125 h1 v1 h-1 z M31 126 h1 v1 h-1 z M31 127 h1 v1 h-1 z M31 128 h1 v1 h-1 z M30 129 h1 v1 h-1 z M30 130 h1 v1 h-1 z M30 131 h1 v1 h-1 z M29 132 h2 v1 h-2 z M29 133 h1 v1 h-1 z M28 134 h2 v1 h-2 z M28 135 h2 v1 h-2 z M28 136 h1 v1 h-1 z M28 137 h1 v1 h-1 z M28 138 h1 v1 h-1 z M28 139 h1 v1 h-1 z M27 145 h1 v1 h-1 z M26 147 h1 v1 h-1 z M26 148 h1 v1 h-1 z M26 149 h1 v1 h-1 z M26 150 h1 v1 h-1 z M1 151 h1 v1 h-1 z M25 151 h2 v1 h-2 z M2 152 h1 v1 h-1 z M25 152 h1 v1 h-1 z M25 153 h1 v1 h-1 z M25 154 h1 v1 h-1 z M25 155 h1 v1 h-1 z M24 157 h1 v1 h-1 z M24 158 h1 v1 h-1 z M24 159 h1 v1 h-1 z M24 160 h1 v1 h-1 z M23 162 h1 v1 h-1 z M23 163 h1 v1 h-1 z M23 164 h1 v1 h-1 z M23 165 h1 v1 h-1 z M31 166 h1 v1 h-1 z M31 167 h1 v1 h-1 z M22 168 h1 v1 h-1 z M30 168 h1 v1 h-1 z M22 169 h1 v1 h-1 z M30 169 h1 v1 h-1 z M22 170 h1 v1 h-1 z M22 171 h1 v1 h-1 z M29 171 h1 v1 h-1 z M21 174 h1 v1 h-1 z M21 175 h1 v1 h-1 z M21 176 h1 v1 h-1 z M21 177 h1 v1 h-1 z M20 178 h2 v1 h-2 z M20 179 h1 v1 h-1 z M20 180 h1 v1 h-1 z M20 181 h1 v1 h-1 z M19 182 h2 v1 h-2 z M19 183 h2 v1 h-2 z M19 184 h1 v1 h-1 z M19 185 h1 v1 h-1 z M19 186 h2 v1 h-2 z M18 187 h3 v1 h-3 z M18 188 h3 v1 h-3 z M18 189 h2 v1 h-2 z M17 190 h1 v1 h-1 z M19 190 h1 v1 h-1 z M17 191 h2 v1 h-2 z M17 192 h2 v1 h-2 z M17 193 h1 v1 h-1 z M17 194 h1 v1 h-1 z M16 195 h2 v1 h-2 z M16 196 h1 v1 h-1 z M16 197 h1 v1 h-1 z M15 198 h2 v1 h-2 z M15 199 h2 v1 h-2 z M15 200 h1 v1 h-1 z M15 201 h1 v1 h-1 z M15 202 h1 v1 h-1 z M14 203 h1 v1 h-1 z M14 204 h1 v1 h-1 z M13 206 h1 v1 h-1 z M11 210 h1 v1 h-1 z M10 211 h2 v1 h-2 z M10 212 h1 v1 h-1 z M9 214 h1 v1 h-1 z M8 215 h2 v1 h-2 z M8 216 h2 v1 h-2 z M8 217 h1 v1 h-1 z M8 218 h1 v1 h-1 z M7 219 h1 v1 h-1 z M7 220 h1 v1 h-1 z M6 221 h2 v1 h-2 z M6 222 h1 v1 h-1 z M6 223 h1 v1 h-1 z M5 224 h2 v1 h-2 z M5 225 h1 v1 h-1 z M5 226 h1 v1 h-1 z M4 227 h1 v1 h-1 z M4 228 h1 v1 h-1 z M3 229 h2 v1 h-2 z "/>
<path fill="#BBCDD8" d="M52 17 h1 v1 h-1 z M60 42 h1 v1 h-1 z M40 47 h1 v1 h-1 z M40 48 h1 v1 h-1 z M57 50 h1 v1 h-1 z M56 52 h1 v1 h-1 z M55 54 h1 v1 h-1 z M54 56 h1 v1 h-1 z M0 57 h1 v1 h-1 z M1 58 h1 v1 h-1 z M53 58 h1 v1 h-1 z M2 59 h1 v1 h-1 z M81 59 h1 v1 h-1 z M0 60 h1 v1 h-1 z M77 60 h1 v1 h-1 z M1 61 h1 v1 h-1 z M2 63 h1 v1 h-1 z M50 63 h1 v1 h-1 z M86 63 h1 v1 h-1 z M3 64 h1 v1 h-1 z M4 65 h1 v1 h-1 z M4 66 h1 v1 h-1 z M10 66 h1 v1 h-1 z M6 67 h1 v1 h-1 z M9 67 h1 v1 h-1 z M9 68 h1 v1 h-1 z M7 69 h3 v1 h-3 z M3 70 h1 v1 h-1 z M8 70 h1 v1 h-1 z M3 71 h1 v1 h-1 z M9 71 h1 v1 h-1 z M9 72 h1 v1 h-1 z M8 75 h1 v1 h-1 z M10 75 h1 v1 h-1 z M1 76 h1 v1 h-1 z M0 77 h3 v1 h-3 z M6 77 h2 v1 h-2 z M1 78 h2 v1 h-2 z M9 78 h1 v1 h-1 z M12 78 h1 v1 h-1 z M1 79 h2 v1 h-2 z M13 79 h2 v1 h-2 z M50 79 h1 v1 h-1 z M75 79 h1 v1 h-1 z M1 80 h2 v1 h-2 z M16 80 h1 v1 h-1 z M74 80 h1 v1 h-1 z M1 81 h3 v1 h-3 z M6 81 h1 v1 h-1 z M13 81 h1 v1 h-1 z M16 81 h2 v1 h-2 z M1 82 h9 v1 h-9 z M14 82 h4 v1 h-4 z M20 82 h2 v1 h-2 z M1 83 h10 v1 h-10 z M17 83 h5 v1 h-5 z M2 84 h5 v1 h-5 z M9 84 h2 v1 h-2 z M18 84 h2 v1 h-2 z M21 84 h1 v1 h-1 z M39 84 h1 v1 h-1 z M68 84 h1 v1 h-1 z M2 85 h1 v1 h-1 z M4 85 h3 v1 h-3 z M21 85 h1 v1 h-1 z M5 86 h2 v1 h-2 z M22 86 h2 v1 h-2 z M47 86 h1 v1 h-1 z M3 87 h1 v1 h-1 z M9 87 h1 v1 h-1 z M22 87 h1 v1 h-1 z M62 87 h1 v1 h-1 z M8 88 h1 v1 h-1 z M23 88 h1 v1 h-1 z M21 89 h1 v1 h-1 z M23 89 h2 v1 h-2 z M4 90 h1 v1 h-1 z M21 90 h4 v1 h-4 z M22 91 h3 v1 h-3 z M44 91 h1 v1 h-1 z M53 91 h1 v1 h-1 z M5 92 h1 v1 h-1 z M23 93 h1 v1 h-1 z M22 94 h2 v1 h-2 z M25 94 h1 v1 h-1 z M22 95 h2 v1 h-2 z M25 95 h1 v1 h-1 z M45 95 h1 v1 h-1 z M8 97 h1 v1 h-1 z M10 100 h1 v1 h-1 z M36 101 h1 v1 h-1 z M26 102 h1 v1 h-1 z M12 103 h1 v1 h-1 z M26 103 h1 v1 h-1 z M13 104 h1 v1 h-1 z M26 106 h1 v1 h-1 z M35 106 h1 v1 h-1 z M34 110 h1 v1 h-1 z M22 115 h1 v1 h-1 z M32 117 h1 v1 h-1 z M26 120 h1 v1 h-1 z M30 125 h1 v1 h-1 z M0 127 h1 v1 h-1 z M0 128 h2 v1 h-2 z M32 128 h1 v1 h-1 z M73 128 h4 v1 h-4 z M0 129 h3 v1 h-3 z M63 129 h3 v1 h-3 z M83 129 h2 v1 h-2 z M0 130 h4 v1 h-4 z M60 130 h1 v1 h-1 z M90 130 h1 v1 h-1 z M0 131 h5 v1 h-5 z M58 131 h2 v1 h-2 z M0 132 h5 v1 h-5 z M56 132 h5 v1 h-5 z M96 132 h1 v1 h-1 z M0 133 h6 v1 h-6 z M54 133 h8 v1 h-8 z M76 133 h1 v1 h-1 z M1 134 h5 v1 h-5 z M53 134 h9 v1 h-9 z M72 134 h1 v1 h-1 z M76 134 h2 v1 h-2 z M1 135 h2 v1 h-2 z M5 135 h2 v1 h-2 z M26 135 h1 v1 h-1 z M52 135 h9 v1 h-9 z M70 135 h4 v1 h-4 z M75 135 h2 v1 h-2 z M93 135 h2 v1 h-2 z M1 136 h2 v1 h-2 z M5 136 h2 v1 h-2 z M51 136 h9 v1 h-9 z M90 136 h1 v1 h-1 z M5 137 h2 v1 h-2 z M49 137 h10 v1 h-10 z M88 137 h1 v1 h-1 z M5 138 h4 v1 h-4 z M48 138 h11 v1 h-11 z M78 138 h2 v1 h-2 z M5 139 h4 v1 h-4 z M47 139 h11 v1 h-11 z M78 139 h1 v1 h-1 z M1 140 h2 v1 h-2 z M5 140 h5 v1 h-5 z M46 140 h9 v1 h-9 z M57 140 h1 v1 h-1 z M71 140 h4 v1 h-4 z M84 140 h1 v1 h-1 z M0 141 h3 v1 h-3 z M6 141 h4 v1 h-4 z M45 141 h1 v1 h-1 z M47 141 h9 v1 h-9 z M65 141 h1 v1 h-1 z M72 141 h4 v1 h-4 z M83 141 h1 v1 h-1 z M0 142 h3 v1 h-3 z M5 142 h5 v1 h-5 z M44 142 h1 v1 h-1 z M48 142 h4 v1 h-4 z M63 142 h3 v1 h-3 z M72 142 h3 v1 h-3 z M82 142 h1 v1 h-1 z M0 143 h4 v1 h-4 z M5 143 h6 v1 h-6 z M48 143 h2 v1 h-2 z M72 143 h3 v1 h-3 z M78 143 h3 v1 h-3 z M1 144 h1 v1 h-1 z M4 144 h7 v1 h-7 z M56 144 h2 v1 h-2 z M72 144 h4 v1 h-4 z M77 144 h3 v1 h-3 z M0 145 h12 v1 h-12 z M28 145 h1 v1 h-1 z M45 145 h1 v1 h-1 z M53 145 h6 v1 h-6 z M73 145 h3 v1 h-3 z M0 146 h12 v1 h-12 z M41 146 h1 v1 h-1 z M44 146 h1 v1 h-1 z M51 146 h2 v1 h-2 z M54 146 h5 v1 h-5 z M73 146 h1 v1 h-1 z M2 147 h4 v1 h-4 z M7 147 h6 v1 h-6 z M25 147 h1 v1 h-1 z M43 147 h1 v1 h-1 z M49 147 h2 v1 h-2 z M54 147 h3 v1 h-3 z M3 148 h2 v1 h-2 z M7 148 h6 v1 h-6 z M42 148 h1 v1 h-1 z M48 148 h2 v1 h-2 z M54 148 h2 v1 h-2 z M74 148 h1 v1 h-1 z M3 149 h1 v1 h-1 z M8 149 h4 v1 h-4 z M13 149 h1 v1 h-1 z M46 149 h3 v1 h-3 z M54 149 h1 v1 h-1 z M3 150 h1 v1 h-1 z M8 150 h4 v1 h-4 z M13 150 h1 v1 h-1 z M38 150 h1 v1 h-1 z M45 150 h3 v1 h-3 z M7 151 h5 v1 h-5 z M13 151 h1 v1 h-1 z M69 151 h1 v1 h-1 z M7 152 h5 v1 h-5 z M13 152 h1 v1 h-1 z M5 153 h7 v1 h-7 z M14 153 h1 v1 h-1 z M36 153 h1 v1 h-1 z M5 154 h7 v1 h-7 z M14 154 h1 v1 h-1 z M6 155 h2 v1 h-2 z M9 155 h1 v1 h-1 z M15 157 h1 v1 h-1 z M15 158 h1 v1 h-1 z M53 158 h1 v1 h-1 z M0 159 h1 v1 h-1 z M3 159 h1 v1 h-1 z M15 159 h1 v1 h-1 z M0 160 h1 v1 h-1 z M3 160 h1 v1 h-1 z M15 160 h1 v1 h-1 z M0 161 h1 v1 h-1 z M15 161 h1 v1 h-1 z M43 161 h1 v1 h-1 z M0 162 h1 v1 h-1 z M15 162 h1 v1 h-1 z M0 163 h1 v1 h-1 z M4 163 h1 v1 h-1 z M13 163 h1 v1 h-1 z M15 163 h1 v1 h-1 z M39 163 h1 v1 h-1 z M4 164 h1 v1 h-1 z M14 164 h2 v1 h-2 z M13 165 h1 v1 h-1 z M15 165 h1 v1 h-1 z M24 165 h1 v1 h-1 z M0 166 h1 v1 h-1 z M13 166 h3 v1 h-3 z M35 166 h1 v1 h-1 z M0 167 h1 v1 h-1 z M13 167 h2 v1 h-2 z M29 167 h1 v1 h-1 z M0 168 h1 v1 h-1 z M13 168 h2 v1 h-2 z M0 169 h1 v1 h-1 z M12 169 h3 v1 h-3 z M0 170 h1 v1 h-1 z M4 170 h1 v1 h-1 z M6 170 h1 v1 h-1 z M12 170 h3 v1 h-3 z M0 171 h1 v1 h-1 z M2 171 h5 v1 h-5 z M11 171 h3 v1 h-3 z M0 172 h2 v1 h-2 z M3 172 h5 v1 h-5 z M11 172 h2 v1 h-2 z M23 172 h1 v1 h-1 z M1 173 h7 v1 h-7 z M12 173 h1 v1 h-1 z M20 173 h1 v1 h-1 z M29 173 h1 v1 h-1 z M2 174 h6 v1 h-6 z M2 175 h2 v1 h-2 z M6 175 h3 v1 h-3 z M11 175 h1 v1 h-1 z M28 175 h1 v1 h-1 z M3 176 h2 v1 h-2 z M7 176 h2 v1 h-2 z M4 177 h1 v1 h-1 z M8 177 h1 v1 h-1 z M27 177 h1 v1 h-1 z M5 178 h1 v1 h-1 z M8 178 h2 v1 h-2 z M19 178 h1 v1 h-1 z M6 179 h4 v1 h-4 z M26 179 h1 v1 h-1 z M7 180 h1 v1 h-1 z M23 180 h1 v1 h-1 z M16 190 h1 v1 h-1 z M13 196 h1 v1 h-1 z M12 198 h1 v1 h-1 z M17 199 h1 v1 h-1 z M12 200 h1 v1 h-1 z M11 203 h1 v1 h-1 z M11 204 h1 v1 h-1 z M10 206 h1 v1 h-1 z M13 212 h1 v1 h-1 z M11 215 h1 v1 h-1 z "/>
<path fill="#EDEFF0" d="M57 11 h1 v1 h-1 z M51 18 h1 v1 h-1 z M66 19 h1 v1 h-1 z M41 39 h1 v1 h-1 z M61 40 h1 v1 h-1 z M40 45 h1 v1 h-1 z M1 48 h1 v1 h-1 z M58 48 h1 v1 h-1 z M2 49 h1 v1 h-1 z M4 50 h1 v1 h-1 z M5 51 h1 v1 h-1 z M6 52 h2 v1 h-2 z M8 53 h1 v1 h-1 z M9 54 h1 v1 h-1 z M10 55 h1 v1 h-1 z M11 56 h1 v1 h-1 z M12 57 h1 v1 h-1 z M13 58 h1 v1 h-1 z M14 60 h1 v1 h-1 z M15 61 h1 v1 h-1 z M88 61 h1 v1 h-1 z M15 62 h2 v1 h-2 z M69 62 h1 v1 h-1 z M16 63 h1 v1 h-1 z M16 64 h2 v1 h-2 z M17 65 h1 v1 h-1 z M18 66 h1 v1 h-1 z M18 67 h2 v1 h-2 z M61 67 h1 v1 h-1 z M19 68 h1 v1 h-1 z M20 69 h1 v1 h-1 z M20 70 h1 v1 h-1 z M58 70 h1 v1 h-1 z M21 71 h1 v1 h-1 z M21 72 h1 v1 h-1 z M41 73 h1 v1 h-1 z M22 74 h1 v1 h-1 z M22 75 h1 v1 h-1 z M23 76 h1 v1 h-1 z M23 77 h1 v1 h-1 z M78 77 h1 v1 h-1 z M24 79 h1 v1 h-1 z M24 80 h1 v1 h-1 z M49 80 h1 v1 h-1 z M24 81 h1 v1 h-1 z M43 81 h1 v1 h-1 z M39 83 h1 v1 h-1 z M25 84 h1 v1 h-1 z M0 85 h1 v1 h-1 z M42 85 h1 v1 h-1 z M47 85 h1 v1 h-1 z M2 87 h1 v1 h-1 z M2 88 h1 v1 h-1 z M38 88 h1 v1 h-1 z M3 90 h1 v1 h-1 z M26 90 h1 v1 h-1 z M41 90 h1 v1 h-1 z M26 91 h1 v1 h-1 z M4 92 h1 v1 h-1 z M26 92 h1 v1 h-1 z M26 93 h1 v1 h-1 z M5 94 h1 v1 h-1 z M37 94 h1 v1 h-1 z M40 96 h1 v1 h-1 z M44 96 h1 v1 h-1 z M7 97 h1 v1 h-1 z M8 99 h1 v1 h-1 z M9 100 h1 v1 h-1 z M36 100 h1 v1 h-1 z M10 102 h1 v1 h-1 z M11 103 h1 v1 h-1 z M38 106 h1 v1 h-1 z M34 109 h1 v1 h-1 z M25 111 h1 v1 h-1 z M32 116 h1 v1 h-1 z M26 119 h1 v1 h-1 z M33 125 h1 v1 h-1 z M70 127 h9 v1 h-9 z M62 128 h3 v1 h-3 z M83 128 h4 v1 h-4 z M4 129 h1 v1 h-1 z M28 129 h1 v1 h-1 z M58 129 h2 v1 h-2 z M28 130 h1 v1 h-1 z M56 130 h1 v1 h-1 z M54 131 h1 v1 h-1 z M6 132 h1 v1 h-1 z M52 132 h2 v1 h-2 z M98 132 h1 v1 h-1 z M51 133 h1 v1 h-1 z M49 134 h2 v1 h-2 z M8 135 h1 v1 h-1 z M48 135 h1 v1 h-1 z M96 135 h1 v1 h-1 z M30 136 h1 v1 h-1 z M47 136 h1 v1 h-1 z M93 136 h1 v1 h-1 z M46 137 h1 v1 h-1 z M90 137 h1 v1 h-1 z M45 138 h1 v1 h-1 z M87 139 h1 v1 h-1 z M11 141 h1 v1 h-1 z M26 141 h1 v1 h-1 z M43 141 h1 v1 h-1 z M42 142 h1 v1 h-1 z M84 142 h1 v1 h-1 z M12 143 h1 v1 h-1 z M41 144 h1 v1 h-1 z M81 144 h1 v1 h-1 z M13 145 h1 v1 h-1 z M40 145 h1 v1 h-1 z M80 145 h1 v1 h-1 z M13 146 h1 v1 h-1 z M79 146 h1 v1 h-1 z M78 147 h1 v1 h-1 z M14 148 h1 v1 h-1 z M38 148 h1 v1 h-1 z M75 149 h1 v1 h-1 z M73 150 h1 v1 h-1 z M27 151 h1 v1 h-1 z M36 151 h1 v1 h-1 z M71 151 h1 v1 h-1 z M15 152 h1 v1 h-1 z M35 153 h1 v1 h-1 z M68 153 h1 v1 h-1 z M88 155 h4 v1 h-4 z M98 155 h1 v1 h-1 z M16 156 h1 v1 h-1 z M80 156 h3 v1 h-3 z M96 156 h1 v1 h-1 z M34 157 h1 v1 h-1 z M58 157 h1 v1 h-1 z M71 157 h5 v1 h-5 z M95 157 h1 v1 h-1 z M67 158 h2 v1 h-2 z M52 159 h1 v1 h-1 z M64 159 h2 v1 h-2 z M22 161 h1 v1 h-1 z M32 161 h1 v1 h-1 z M59 161 h1 v1 h-1 z M43 162 h1 v1 h-1 z M57 162 h2 v1 h-2 z M41 163 h1 v1 h-1 z M55 163 h1 v1 h-1 z M39 164 h1 v1 h-1 z M53 164 h1 v1 h-1 z M89 164 h1 v1 h-1 z M37 165 h1 v1 h-1 z M51 165 h1 v1 h-1 z M88 165 h1 v1 h-1 z M21 166 h1 v1 h-1 z M49 166 h1 v1 h-1 z M87 166 h1 v1 h-1 z M16 167 h1 v1 h-1 z M16 168 h1 v1 h-1 z M46 168 h1 v1 h-1 z M86 168 h1 v1 h-1 z M44 169 h2 v1 h-2 z M85 169 h1 v1 h-1 z M43 170 h1 v1 h-1 z M84 170 h1 v1 h-1 z M15 171 h1 v1 h-1 z M20 171 h1 v1 h-1 z M41 171 h2 v1 h-2 z M83 171 h1 v1 h-1 z M40 172 h1 v1 h-1 z M82 172 h2 v1 h-2 z M14 173 h1 v1 h-1 z M38 173 h1 v1 h-1 z M82 173 h1 v1 h-1 z M37 174 h1 v1 h-1 z M81 174 h1 v1 h-1 z M23 175 h1 v1 h-1 z M36 175 h1 v1 h-1 z M63 175 h1 v1 h-1 z M80 175 h1 v1 h-1 z M0 176 h1 v1 h-1 z M13 176 h1 v1 h-1 z M19 176 h1 v1 h-1 z M35 176 h1 v1 h-1 z M65 176 h1 v1 h-1 z M79 176 h1 v1 h-1 z M1 177 h1 v1 h-1 z M12 177 h1 v1 h-1 z M33 177 h1 v1 h-1 z M78 177 h1 v1 h-1 z M12 178 h1 v1 h-1 z M27 178 h1 v1 h-1 z M32 178 h1 v1 h-1 z M77 178 h1 v1 h-1 z M23 179 h1 v1 h-1 z M31 179 h1 v1 h-1 z M76 179 h1 v1 h-1 z M4 180 h1 v1 h-1 z M12 180 h1 v1 h-1 z M22 180 h1 v1 h-1 z M30 180 h1 v1 h-1 z M75 180 h1 v1 h-1 z M5 181 h1 v1 h-1 z M18 181 h1 v1 h-1 z M22 181 h1 v1 h-1 z M29 181 h1 v1 h-1 z M74 181 h1 v1 h-1 z M6 182 h1 v1 h-1 z M28 182 h1 v1 h-1 z M73 182 h1 v1 h-1 z M56 183 h1 v1 h-1 z M72 183 h1 v1 h-1 z M9 184 h1 v1 h-1 z M27 184 h1 v1 h-1 z M55 184 h3 v1 h-3 z M71 184 h1 v1 h-1 z M26 185 h1 v1 h-1 z M56 185 h1 v1 h-1 z M70 185 h1 v1 h-1 z M26 186 h1 v1 h-1 z M69 186 h1 v1 h-1 z M16 187 h1 v1 h-1 z M68 187 h1 v1 h-1 z M16 188 h1 v1 h-1 z M25 188 h1 v1 h-1 z M67 188 h1 v1 h-1 z M24 189 h1 v1 h-1 z M65 189 h1 v1 h-1 z M24 190 h1 v1 h-1 z M64 190 h1 v1 h-1 z M20 191 h1 v1 h-1 z M23 191 h1 v1 h-1 z M63 191 h1 v1 h-1 z M23 192 h1 v1 h-1 z M61 192 h2 v1 h-2 z M22 193 h1 v1 h-1 z M60 193 h1 v1 h-1 z M21 194 h1 v1 h-1 z M58 194 h2 v1 h-2 z M21 195 h1 v1 h-1 z M57 195 h1 v1 h-1 z M20 196 h2 v1 h-2 z M56 196 h1 v1 h-1 z M18 197 h1 v1 h-1 z M20 197 h1 v1 h-1 z M54 197 h1 v1 h-1 z M19 198 h1 v1 h-1 z M52 198 h1 v1 h-1 z M19 199 h1 v1 h-1 z M50 199 h1 v1 h-1 z M18 200 h2 v1 h-2 z M48 200 h1 v1 h-1 z M17 201 h2 v1 h-2 z M46 201 h1 v1 h-1 z M17 202 h2 v1 h-2 z M44 202 h1 v1 h-1 z M41 203 h1 v1 h-1 z M16 204 h1 v1 h-1 z M36 205 h1 v1 h-1 z M15 206 h1 v1 h-1 z M34 206 h1 v1 h-1 z M30 207 h2 v1 h-2 z M27 208 h1 v1 h-1 z M23 209 h2 v1 h-2 z M20 210 h1 v1 h-1 z M6 216 h1 v1 h-1 z M4 223 h1 v1 h-1 z "/>
<path fill="#9AB2BE" d="M64 4 h2 v1 h-2 z M63 5 h1 v1 h-1 z M65 5 h1 v1 h-1 z M65 6 h1 v1 h-1 z M65 7 h1 v1 h-1 z M65 8 h1 v1 h-1 z M60 9 h1 v1 h-1 z M65 9 h1 v1 h-1 z M65 10 h1 v1 h-1 z M65 11 h1 v1 h-1 z M57 12 h1 v1 h-1 z M65 12 h1 v1 h-1 z M56 13 h1 v1 h-1 z M65 13 h1 v1 h-1 z M55 14 h1 v1 h-1 z M65 14 h1 v1 h-1 z M54 15 h1 v1 h-1 z M52 18 h1 v1 h-1 z M50 21 h1 v1 h-1 z M49 23 h1 v1 h-1 z M47 26 h1 v1 h-1 z M46 28 h1 v1 h-1 z M65 28 h1 v1 h-1 z M45 30 h1 v1 h-1 z M44 33 h1 v1 h-1 z M63 34 h1 v1 h-1 z M43 35 h1 v1 h-1 z M62 36 h1 v1 h-1 z M61 38 h1 v1 h-1 z M42 39 h1 v1 h-1 z M60 41 h1 v1 h-1 z M41 43 h1 v1 h-1 z M41 44 h1 v1 h-1 z M59 44 h1 v1 h-1 z M58 46 h1 v1 h-1 z M57 49 h1 v1 h-1 z M40 51 h1 v1 h-1 z M56 51 h1 v1 h-1 z M40 52 h1 v1 h-1 z M40 53 h1 v1 h-1 z M55 53 h1 v1 h-1 z M40 54 h1 v1 h-1 z M40 55 h1 v1 h-1 z M54 55 h1 v1 h-1 z M40 56 h1 v1 h-1 z M40 57 h1 v1 h-1 z M53 57 h1 v1 h-1 z M88 57 h1 v1 h-1 z M40 58 h1 v1 h-1 z M85 58 h1 v1 h-1 z M40 59 h1 v1 h-1 z M52 59 h1 v1 h-1 z M82 59 h1 v1 h-1 z M40 60 h1 v1 h-1 z M79 60 h1 v1 h-1 z M40 61 h1 v1 h-1 z M51 61 h1 v1 h-1 z M49 64 h1 v1 h-1 z M67 64 h1 v1 h-1 z M84 64 h1 v1 h-1 z M41 65 h1 v1 h-1 z M48 65 h1 v1 h-1 z M65 65 h1 v1 h-1 z M84 65 h1 v1 h-1 z M47 66 h1 v1 h-1 z M42 67 h1 v1 h-1 z M62 67 h1 v1 h-1 z M83 67 h1 v1 h-1 z M42 68 h1 v1 h-1 z M83 68 h1 v1 h-1 z M5 69 h1 v1 h-1 z M42 69 h1 v1 h-1 z M7 70 h1 v1 h-1 z M42 70 h1 v1 h-1 z M82 70 h1 v1 h-1 z M5 71 h1 v1 h-1 z M7 71 h1 v1 h-1 z M58 71 h1 v1 h-1 z M8 72 h1 v1 h-1 z M57 72 h1 v1 h-1 z M8 73 h1 v1 h-1 z M44 73 h1 v1 h-1 z M56 73 h1 v1 h-1 z M9 74 h1 v1 h-1 z M9 75 h1 v1 h-1 z M41 75 h1 v1 h-1 z M67 75 h2 v1 h-2 z M10 76 h1 v1 h-1 z M53 76 h1 v1 h-1 z M78 76 h1 v1 h-1 z M10 77 h1 v1 h-1 z M52 77 h1 v1 h-1 z M77 77 h1 v1 h-1 z M10 78 h2 v1 h-2 z M43 78 h1 v1 h-1 z M11 79 h1 v1 h-1 z M11 80 h2 v1 h-2 z M40 80 h1 v1 h-1 z M50 80 h1 v1 h-1 z M73 80 h1 v1 h-1 z M72 81 h1 v1 h-1 z M13 82 h1 v1 h-1 z M49 82 h1 v1 h-1 z M11 83 h1 v1 h-1 z M69 83 h1 v1 h-1 z M14 84 h1 v1 h-1 z M12 85 h1 v1 h-1 z M15 85 h1 v1 h-1 z M39 85 h1 v1 h-1 z M15 86 h1 v1 h-1 z M19 86 h2 v1 h-2 z M13 87 h1 v1 h-1 z M16 87 h1 v1 h-1 z M18 87 h3 v1 h-3 z M41 87 h1 v1 h-1 z M61 87 h1 v1 h-1 z M13 88 h1 v1 h-1 z M16 88 h1 v1 h-1 z M18 88 h3 v1 h-3 z M59 88 h1 v1 h-1 z M5 89 h1 v1 h-1 z M11 89 h3 v1 h-3 z M16 89 h5 v1 h-5 z M57 89 h1 v1 h-1 z M5 90 h2 v1 h-2 z M9 90 h6 v1 h-6 z M17 90 h3 v1 h-3 z M38 90 h1 v1 h-1 z M45 90 h1 v1 h-1 z M6 91 h9 v1 h-9 z M18 91 h2 v1 h-2 z M52 91 h1 v1 h-1 z M6 92 h10 v1 h-10 z M18 92 h2 v1 h-2 z M40 92 h1 v1 h-1 z M50 92 h1 v1 h-1 z M8 93 h6 v1 h-6 z M15 93 h1 v1 h-1 z M18 93 h1 v1 h-1 z M40 93 h1 v1 h-1 z M8 94 h5 v1 h-5 z M18 94 h1 v1 h-1 z M42 94 h1 v1 h-1 z M46 94 h1 v1 h-1 z M8 95 h5 v1 h-5 z M16 95 h1 v1 h-1 z M18 95 h1 v1 h-1 z M9 96 h3 v1 h-3 z M17 96 h2 v1 h-2 z M9 97 h3 v1 h-3 z M17 97 h3 v1 h-3 z M37 97 h1 v1 h-1 z M10 98 h2 v1 h-2 z M17 98 h1 v1 h-1 z M19 98 h3 v1 h-3 z M11 99 h7 v1 h-7 z M20 99 h3 v1 h-3 z M24 99 h1 v1 h-1 z M11 100 h7 v1 h-7 z M20 100 h3 v1 h-3 z M24 100 h1 v1 h-1 z M12 101 h6 v1 h-6 z M21 101 h2 v1 h-2 z M24 101 h1 v1 h-1 z M12 102 h7 v1 h-7 z M21 102 h5 v1 h-5 z M39 102 h1 v1 h-1 z M13 103 h6 v1 h-6 z M21 103 h5 v1 h-5 z M36 103 h1 v1 h-1 z M14 104 h5 v1 h-5 z M22 104 h4 v1 h-4 z M15 105 h4 v1 h-4 z M22 105 h4 v1 h-4 z M16 106 h3 v1 h-3 z M23 106 h1 v1 h-1 z M25 106 h1 v1 h-1 z M16 107 h2 v1 h-2 z M25 107 h1 v1 h-1 z M35 107 h1 v1 h-1 z M17 108 h1 v1 h-1 z M25 108 h1 v1 h-1 z M37 108 h1 v1 h-1 z M17 109 h1 v1 h-1 z M24 109 h1 v1 h-1 z M18 110 h2 v1 h-2 z M24 110 h1 v1 h-1 z M19 111 h2 v1 h-2 z M24 111 h1 v1 h-1 z M34 111 h1 v1 h-1 z M36 112 h1 v1 h-1 z M21 113 h1 v1 h-1 z M24 114 h1 v1 h-1 z M33 114 h1 v1 h-1 z M35 115 h1 v1 h-1 z M23 116 h1 v1 h-1 z M25 117 h1 v1 h-1 z M32 118 h1 v1 h-1 z M24 119 h1 v1 h-1 z M34 119 h1 v1 h-1 z M24 120 h1 v1 h-1 z M26 121 h1 v1 h-1 z M25 122 h2 v1 h-2 z M31 122 h1 v1 h-1 z M25 123 h1 v1 h-1 z M33 123 h1 v1 h-1 z M25 124 h1 v1 h-1 z M27 125 h1 v1 h-1 z M27 126 h1 v1 h-1 z M30 126 h1 v1 h-1 z M32 127 h1 v1 h-1 z M26 128 h1 v1 h-1 z M26 129 h1 v1 h-1 z M75 129 h1 v1 h-1 z M26 130 h1 v1 h-1 z M29 130 h1 v1 h-1 z M66 130 h1 v1 h-1 z M71 130 h2 v1 h-2 z M74 130 h2 v1 h-2 z M83 130 h3 v1 h-3 z M26 131 h1 v1 h-1 z M31 131 h1 v1 h-1 z M74 131 h2 v1 h-2 z M85 131 h4 v1 h-4 z M26 132 h1 v1 h-1 z M28 132 h1 v1 h-1 z M86 132 h9 v1 h-9 z M26 133 h1 v1 h-1 z M86 133 h10 v1 h-10 z M97 133 h2 v1 h-2 z M83 134 h17 v1 h-17 z M77 135 h2 v1 h-2 z M82 135 h10 v1 h-10 z M61 136 h2 v1 h-2 z M76 136 h1 v1 h-1 z M82 136 h2 v1 h-2 z M29 137 h1 v1 h-1 z M60 137 h3 v1 h-3 z M67 137 h15 v1 h-15 z M29 138 h1 v1 h-1 z M59 138 h1 v1 h-1 z M61 138 h1 v1 h-1 z M65 138 h2 v1 h-2 z M74 138 h2 v1 h-2 z M61 139 h4 v1 h-4 z M71 139 h2 v1 h-2 z M58 140 h1 v1 h-1 z M61 140 h1 v1 h-1 z M65 140 h6 v1 h-6 z M57 141 h1 v1 h-1 z M61 141 h3 v1 h-3 z M53 142 h3 v1 h-3 z M59 142 h1 v1 h-1 z M28 143 h1 v1 h-1 z M51 143 h1 v1 h-1 z M56 143 h4 v1 h-4 z M26 144 h1 v1 h-1 z M28 144 h1 v1 h-1 z M49 144 h1 v1 h-1 z M53 144 h1 v1 h-1 z M48 145 h1 v1 h-1 z M51 145 h1 v1 h-1 z M46 146 h1 v1 h-1 z M49 146 h1 v1 h-1 z M45 147 h1 v1 h-1 z M48 147 h1 v1 h-1 z M25 148 h1 v1 h-1 z M44 148 h1 v1 h-1 z M0 149 h2 v1 h-2 z M27 149 h1 v1 h-1 z M43 149 h1 v1 h-1 z M45 149 h1 v1 h-1 z M2 150 h1 v1 h-1 z M41 150 h2 v1 h-2 z M44 150 h1 v1 h-1 z M40 151 h1 v1 h-1 z M43 151 h1 v1 h-1 z M65 151 h3 v1 h-3 z M0 152 h1 v1 h-1 z M3 152 h1 v1 h-1 z M40 152 h1 v1 h-1 z M42 152 h1 v1 h-1 z M57 152 h1 v1 h-1 z M61 152 h6 v1 h-6 z M1 153 h1 v1 h-1 z M24 153 h1 v1 h-1 z M38 153 h1 v1 h-1 z M41 153 h1 v1 h-1 z M57 153 h7 v1 h-7 z M2 154 h1 v1 h-1 z M4 154 h1 v1 h-1 z M26 154 h1 v1 h-1 z M37 154 h1 v1 h-1 z M40 154 h1 v1 h-1 z M47 154 h15 v1 h-15 z M2 155 h1 v1 h-1 z M4 155 h1 v1 h-1 z M37 155 h1 v1 h-1 z M39 155 h1 v1 h-1 z M46 155 h14 v1 h-14 z M3 156 h1 v1 h-1 z M5 156 h1 v1 h-1 z M36 156 h1 v1 h-1 z M38 156 h1 v1 h-1 z M46 156 h12 v1 h-12 z M5 157 h1 v1 h-1 z M35 157 h1 v1 h-1 z M37 157 h1 v1 h-1 z M44 157 h11 v1 h-11 z M90 157 h3 v1 h-3 z M6 158 h1 v1 h-1 z M9 158 h2 v1 h-2 z M35 158 h2 v1 h-2 z M42 158 h11 v1 h-11 z M88 158 h4 v1 h-4 z M4 159 h1 v1 h-1 z M6 159 h1 v1 h-1 z M8 159 h3 v1 h-3 z M23 159 h1 v1 h-1 z M25 159 h1 v1 h-1 z M34 159 h1 v1 h-1 z M36 159 h1 v1 h-1 z M41 159 h8 v1 h-8 z M86 159 h3 v1 h-3 z M6 160 h1 v1 h-1 z M8 160 h3 v1 h-3 z M35 160 h1 v1 h-1 z M40 160 h5 v1 h-5 z M83 160 h4 v1 h-4 z M5 161 h1 v1 h-1 z M7 161 h5 v1 h-5 z M33 161 h1 v1 h-1 z M35 161 h1 v1 h-1 z M38 161 h4 v1 h-4 z M81 161 h4 v1 h-4 z M5 162 h1 v1 h-1 z M7 162 h4 v1 h-4 z M34 162 h6 v1 h-6 z M80 162 h4 v1 h-4 z M6 163 h2 v1 h-2 z M9 163 h2 v1 h-2 z M24 163 h1 v1 h-1 z M34 163 h4 v1 h-4 z M78 163 h4 v1 h-4 z M8 164 h1 v1 h-1 z M22 164 h1 v1 h-1 z M24 164 h1 v1 h-1 z M33 164 h4 v1 h-4 z M77 164 h3 v1 h-3 z M6 165 h1 v1 h-1 z M8 165 h1 v1 h-1 z M33 165 h3 v1 h-3 z M76 165 h3 v1 h-3 z M6 166 h1 v1 h-1 z M8 166 h1 v1 h-1 z M34 166 h1 v1 h-1 z M74 166 h3 v1 h-3 z M6 167 h1 v1 h-1 z M72 167 h3 v1 h-3 z M7 168 h1 v1 h-1 z M9 168 h1 v1 h-1 z M29 168 h1 v1 h-1 z M33 168 h1 v1 h-1 z M70 168 h3 v1 h-3 z M7 169 h1 v1 h-1 z M9 169 h1 v1 h-1 z M21 169 h1 v1 h-1 z M32 169 h1 v1 h-1 z M68 169 h1 v1 h-1 z M71 169 h1 v1 h-1 z M9 170 h1 v1 h-1 z M21 170 h1 v1 h-1 z M23 170 h1 v1 h-1 z M31 170 h1 v1 h-1 z M66 170 h4 v1 h-4 z M8 171 h2 v1 h-2 z M30 171 h1 v1 h-1 z M65 171 h2 v1 h-2 z M8 172 h2 v1 h-2 z M63 172 h2 v1 h-2 z M9 173 h2 v1 h-2 z M62 173 h2 v1 h-2 z M9 174 h2 v1 h-2 z M20 174 h1 v1 h-1 z M28 174 h1 v1 h-1 z M61 174 h1 v1 h-1 z M9 175 h2 v1 h-2 z M20 175 h1 v1 h-1 z M22 175 h1 v1 h-1 z M26 175 h1 v1 h-1 z M9 176 h2 v1 h-2 z M22 176 h1 v1 h-1 z M27 176 h1 v1 h-1 z M10 177 h1 v1 h-1 z M22 177 h1 v1 h-1 z M25 177 h1 v1 h-1 z M56 177 h2 v1 h-2 z M10 178 h1 v1 h-1 z M26 178 h1 v1 h-1 z M56 178 h1 v1 h-1 z M10 179 h1 v1 h-1 z M19 179 h1 v1 h-1 z M24 179 h1 v1 h-1 z M53 179 h1 v1 h-1 z M55 179 h1 v1 h-1 z M51 180 h3 v1 h-3 z M21 181 h1 v1 h-1 z M23 181 h1 v1 h-1 z M49 181 h3 v1 h-3 z M21 182 h1 v1 h-1 z M48 182 h2 v1 h-2 z M22 183 h1 v1 h-1 z M47 183 h2 v1 h-2 z M18 184 h1 v1 h-1 z M21 184 h1 v1 h-1 z M45 184 h2 v1 h-2 z M44 185 h2 v1 h-2 z M13 186 h1 v1 h-1 z M42 186 h1 v1 h-1 z M45 186 h1 v1 h-1 z M13 187 h1 v1 h-1 z M17 187 h1 v1 h-1 z M41 187 h1 v1 h-1 z M45 187 h3 v1 h-3 z M13 188 h1 v1 h-1 z M21 188 h1 v1 h-1 z M40 188 h3 v1 h-3 z M13 189 h2 v1 h-2 z M39 189 h1 v1 h-1 z M37 190 h2 v1 h-2 z M16 191 h1 v1 h-1 z M36 191 h2 v1 h-2 z M16 192 h1 v1 h-1 z M34 192 h1 v1 h-1 z M36 192 h1 v1 h-1 z M33 193 h3 v1 h-3 z M31 194 h4 v1 h-4 z M15 195 h1 v1 h-1 z M18 195 h1 v1 h-1 z M30 195 h1 v1 h-1 z M32 195 h1 v1 h-1 z M29 196 h3 v1 h-3 z M28 197 h2 v1 h-2 z M17 198 h1 v1 h-1 z M27 198 h2 v1 h-2 z M14 199 h1 v1 h-1 z M26 199 h1 v1 h-1 z M14 200 h1 v1 h-1 z M25 200 h1 v1 h-1 z M16 201 h1 v1 h-1 z M24 201 h1 v1 h-1 z M23 202 h2 v1 h-2 z M13 203 h1 v1 h-1 z M22 203 h2 v1 h-2 z M15 204 h1 v1 h-1 z M22 204 h1 v1 h-1 z M21 205 h2 v1 h-2 z M12 206 h1 v1 h-1 z M14 206 h1 v1 h-1 z M20 206 h2 v1 h-2 z M10 207 h2 v1 h-2 z M20 207 h1 v1 h-1 z M10 208 h1 v1 h-1 z M13 208 h1 v1 h-1 z M13 209 h1 v1 h-1 z M9 210 h1 v1 h-1 z M12 211 h1 v1 h-1 z M8 213 h1 v1 h-1 z M11 213 h1 v1 h-1 z M11 214 h1 v1 h-1 z M7 215 h1 v1 h-1 z M10 216 h1 v1 h-1 z M16 217 h1 v1 h-1 z M9 218 h1 v1 h-1 z M6 219 h1 v1 h-1 z M9 219 h1 v1 h-1 z M8 221 h1 v1 h-1 z M7 223 h1 v1 h-1 z M3 227 h1 v1 h-1 z M5 228 h1 v1 h-1 z M4 230 h1 v1 h-1 z "/>
<path fill="#B0C3CF" d="M64 3 h2 v1 h-2 z M62 6 h1 v1 h-1 z M53 16 h1 v1 h-1 z M51 19 h1 v1 h-1 z M48 24 h1 v1 h-1 z M64 31 h1 v1 h-1 z M44 32 h1 v1 h-1 z M42 38 h1 v1 h-1 z M61 39 h1 v1 h-1 z M41 42 h1 v1 h-1 z M58 47 h1 v1 h-1 z M40 49 h1 v1 h-1 z M40 50 h1 v1 h-1 z M89 57 h1 v1 h-1 z M0 58 h1 v1 h-1 z M0 59 h2 v1 h-2 z M89 59 h1 v1 h-1 z M1 60 h2 v1 h-2 z M78 60 h1 v1 h-1 z M2 61 h1 v1 h-1 z M73 61 h1 v1 h-1 z M2 62 h2 v1 h-2 z M40 62 h1 v1 h-1 z M70 62 h1 v1 h-1 z M3 63 h1 v1 h-1 z M85 64 h1 v1 h-1 z M5 66 h1 v1 h-1 z M41 66 h1 v1 h-1 z M84 66 h1 v1 h-1 z M5 67 h1 v1 h-1 z M5 68 h2 v1 h-2 z M4 70 h1 v1 h-1 z M4 71 h1 v1 h-1 z M8 71 h1 v1 h-1 z M7 72 h1 v1 h-1 z M81 72 h1 v1 h-1 z M9 73 h1 v1 h-1 z M8 74 h1 v1 h-1 z M79 75 h1 v1 h-1 z M8 76 h1 v1 h-1 z M8 77 h1 v1 h-1 z M11 77 h1 v1 h-1 z M51 78 h1 v1 h-1 z M76 78 h1 v1 h-1 z M10 79 h1 v1 h-1 z M12 79 h1 v1 h-1 z M40 79 h1 v1 h-1 z M43 79 h1 v1 h-1 z M10 80 h1 v1 h-1 z M10 81 h1 v1 h-1 z M10 82 h1 v1 h-1 z M71 82 h1 v1 h-1 z M14 83 h3 v1 h-3 z M42 83 h1 v1 h-1 z M7 84 h2 v1 h-2 z M11 84 h1 v1 h-1 z M15 84 h3 v1 h-3 z M20 84 h1 v1 h-1 z M48 84 h1 v1 h-1 z M3 85 h1 v1 h-1 z M7 85 h5 v1 h-5 z M16 85 h5 v1 h-5 z M66 85 h1 v1 h-1 z M3 86 h2 v1 h-2 z M7 86 h6 v1 h-6 z M16 86 h3 v1 h-3 z M21 86 h1 v1 h-1 z M64 86 h1 v1 h-1 z M4 87 h5 v1 h-5 z M10 87 h3 v1 h-3 z M17 87 h1 v1 h-1 z M21 87 h1 v1 h-1 z M4 88 h4 v1 h-4 z M9 88 h4 v1 h-4 z M17 88 h1 v1 h-1 z M21 88 h1 v1 h-1 z M41 88 h1 v1 h-1 z M46 88 h1 v1 h-1 z M4 89 h1 v1 h-1 z M6 89 h5 v1 h-5 z M38 89 h1 v1 h-1 z M7 90 h2 v1 h-2 z M20 90 h1 v1 h-1 z M5 91 h1 v1 h-1 z M20 91 h2 v1 h-2 z M20 92 h5 v1 h-5 z M6 93 h2 v1 h-2 z M14 93 h1 v1 h-1 z M19 93 h4 v1 h-4 z M24 93 h1 v1 h-1 z M48 93 h1 v1 h-1 z M7 94 h1 v1 h-1 z M13 94 h3 v1 h-3 z M19 94 h3 v1 h-3 z M24 94 h1 v1 h-1 z M40 94 h1 v1 h-1 z M7 95 h1 v1 h-1 z M13 95 h3 v1 h-3 z M19 95 h3 v1 h-3 z M24 95 h1 v1 h-1 z M41 95 h1 v1 h-1 z M8 96 h1 v1 h-1 z M12 96 h5 v1 h-5 z M19 96 h7 v1 h-7 z M37 96 h1 v1 h-1 z M12 97 h5 v1 h-5 z M20 97 h6 v1 h-6 z M9 98 h1 v1 h-1 z M12 98 h5 v1 h-5 z M22 98 h4 v1 h-4 z M10 99 h1 v1 h-1 z M23 99 h1 v1 h-1 z M25 99 h1 v1 h-1 z M23 100 h1 v1 h-1 z M25 100 h1 v1 h-1 z M40 100 h1 v1 h-1 z M11 101 h1 v1 h-1 z M23 101 h1 v1 h-1 z M25 101 h1 v1 h-1 z M36 102 h1 v1 h-1 z M26 104 h1 v1 h-1 z M14 105 h1 v1 h-1 z M26 105 h1 v1 h-1 z M38 105 h1 v1 h-1 z M15 106 h1 v1 h-1 z M16 108 h1 v1 h-1 z M25 109 h1 v1 h-1 z M20 112 h1 v1 h-1 z M24 112 h1 v1 h-1 z M24 113 h1 v1 h-1 z M35 116 h1 v1 h-1 z M23 117 h1 v1 h-1 z M34 120 h1 v1 h-1 z M31 121 h1 v1 h-1 z M27 124 h1 v1 h-1 z M33 124 h1 v1 h-1 z M25 125 h1 v1 h-1 z M66 129 h9 v1 h-9 z M76 129 h7 v1 h-7 z M61 130 h5 v1 h-5 z M67 130 h4 v1 h-4 z M73 130 h1 v1 h-1 z M76 130 h7 v1 h-7 z M86 130 h4 v1 h-4 z M60 131 h14 v1 h-14 z M76 131 h9 v1 h-9 z M89 131 h5 v1 h-5 z M61 132 h25 v1 h-25 z M95 132 h1 v1 h-1 z M62 133 h14 v1 h-14 z M77 133 h9 v1 h-9 z M99 133 h1 v1 h-1 z M26 134 h1 v1 h-1 z M62 134 h10 v1 h-10 z M73 134 h3 v1 h-3 z M78 134 h5 v1 h-5 z M30 135 h1 v1 h-1 z M61 135 h9 v1 h-9 z M74 135 h1 v1 h-1 z M92 135 h1 v1 h-1 z M60 136 h1 v1 h-1 z M63 136 h13 v1 h-13 z M84 136 h6 v1 h-6 z M59 137 h1 v1 h-1 z M63 137 h4 v1 h-4 z M82 137 h6 v1 h-6 z M62 138 h3 v1 h-3 z M76 138 h2 v1 h-2 z M80 138 h7 v1 h-7 z M58 139 h1 v1 h-1 z M73 139 h5 v1 h-5 z M79 139 h7 v1 h-7 z M75 140 h9 v1 h-9 z M46 141 h1 v1 h-1 z M56 141 h1 v1 h-1 z M64 141 h1 v1 h-1 z M66 141 h6 v1 h-6 z M76 141 h7 v1 h-7 z M45 142 h3 v1 h-3 z M52 142 h1 v1 h-1 z M60 142 h3 v1 h-3 z M66 142 h6 v1 h-6 z M75 142 h7 v1 h-7 z M26 143 h1 v1 h-1 z M44 143 h4 v1 h-4 z M50 143 h1 v1 h-1 z M60 143 h12 v1 h-12 z M75 143 h3 v1 h-3 z M43 144 h6 v1 h-6 z M54 144 h2 v1 h-2 z M58 144 h14 v1 h-14 z M76 144 h1 v1 h-1 z M42 145 h3 v1 h-3 z M46 145 h2 v1 h-2 z M52 145 h1 v1 h-1 z M59 145 h14 v1 h-14 z M76 145 h2 v1 h-2 z M42 146 h2 v1 h-2 z M45 146 h1 v1 h-1 z M50 146 h1 v1 h-1 z M53 146 h1 v1 h-1 z M59 146 h14 v1 h-14 z M74 146 h3 v1 h-3 z M0 147 h2 v1 h-2 z M6 147 h1 v1 h-1 z M41 147 h2 v1 h-2 z M44 147 h1 v1 h-1 z M51 147 h3 v1 h-3 z M57 147 h19 v1 h-19 z M0 148 h3 v1 h-3 z M5 148 h2 v1 h-2 z M40 148 h2 v1 h-2 z M43 148 h1 v1 h-1 z M47 148 h1 v1 h-1 z M50 148 h4 v1 h-4 z M56 148 h18 v1 h-18 z M2 149 h1 v1 h-1 z M4 149 h4 v1 h-4 z M12 149 h1 v1 h-1 z M39 149 h4 v1 h-4 z M49 149 h5 v1 h-5 z M55 149 h18 v1 h-18 z M4 150 h4 v1 h-4 z M12 150 h1 v1 h-1 z M27 150 h1 v1 h-1 z M39 150 h2 v1 h-2 z M48 150 h23 v1 h-23 z M3 151 h4 v1 h-4 z M12 151 h1 v1 h-1 z M38 151 h2 v1 h-2 z M44 151 h21 v1 h-21 z M68 151 h1 v1 h-1 z M4 152 h3 v1 h-3 z M12 152 h1 v1 h-1 z M24 152 h1 v1 h-1 z M37 152 h3 v1 h-3 z M43 152 h14 v1 h-14 z M58 152 h3 v1 h-3 z M67 152 h1 v1 h-1 z M0 153 h1 v1 h-1 z M4 153 h1 v1 h-1 z M12 153 h2 v1 h-2 z M37 153 h1 v1 h-1 z M42 153 h15 v1 h-15 z M64 153 h2 v1 h-2 z M0 154 h2 v1 h-2 z M12 154 h2 v1 h-2 z M36 154 h1 v1 h-1 z M41 154 h6 v1 h-6 z M62 154 h1 v1 h-1 z M0 155 h2 v1 h-2 z M5 155 h1 v1 h-1 z M8 155 h1 v1 h-1 z M10 155 h5 v1 h-5 z M36 155 h1 v1 h-1 z M40 155 h6 v1 h-6 z M60 155 h1 v1 h-1 z M0 156 h3 v1 h-3 z M6 156 h9 v1 h-9 z M39 156 h7 v1 h-7 z M58 156 h1 v1 h-1 z M91 156 h4 v1 h-4 z M0 157 h4 v1 h-4 z M6 157 h9 v1 h-9 z M38 157 h6 v1 h-6 z M55 157 h1 v1 h-1 z M88 157 h2 v1 h-2 z M93 157 h1 v1 h-1 z M0 158 h4 v1 h-4 z M7 158 h2 v1 h-2 z M11 158 h4 v1 h-4 z M23 158 h1 v1 h-1 z M37 158 h5 v1 h-5 z M82 158 h1 v1 h-1 z M85 158 h3 v1 h-3 z M92 158 h1 v1 h-1 z M1 159 h2 v1 h-2 z M7 159 h1 v1 h-1 z M11 159 h4 v1 h-4 z M37 159 h4 v1 h-4 z M49 159 h1 v1 h-1 z M72 159 h14 v1 h-14 z M89 159 h3 v1 h-3 z M1 160 h2 v1 h-2 z M4 160 h1 v1 h-1 z M7 160 h1 v1 h-1 z M11 160 h4 v1 h-4 z M25 160 h1 v1 h-1 z M36 160 h4 v1 h-4 z M45 160 h2 v1 h-2 z M71 160 h12 v1 h-12 z M87 160 h2 v1 h-2 z M1 161 h4 v1 h-4 z M12 161 h3 v1 h-3 z M36 161 h2 v1 h-2 z M42 161 h1 v1 h-1 z M70 161 h7 v1 h-7 z M78 161 h3 v1 h-3 z M85 161 h2 v1 h-2 z M1 162 h4 v1 h-4 z M11 162 h4 v1 h-4 z M32 162 h1 v1 h-1 z M40 162 h1 v1 h-1 z M70 162 h1 v1 h-1 z M78 162 h2 v1 h-2 z M84 162 h1 v1 h-1 z M1 163 h3 v1 h-3 z M5 163 h1 v1 h-1 z M8 163 h1 v1 h-1 z M11 163 h2 v1 h-2 z M14 163 h1 v1 h-1 z M22 163 h1 v1 h-1 z M38 163 h1 v1 h-1 z M61 163 h1 v1 h-1 z M82 163 h1 v1 h-1 z M0 164 h4 v1 h-4 z M5 164 h1 v1 h-1 z M9 164 h5 v1 h-5 z M37 164 h1 v1 h-1 z M60 164 h1 v1 h-1 z M80 164 h1 v1 h-1 z M0 165 h6 v1 h-6 z M9 165 h4 v1 h-4 z M14 165 h1 v1 h-1 z M30 165 h1 v1 h-1 z M75 165 h1 v1 h-1 z M1 166 h5 v1 h-5 z M9 166 h4 v1 h-4 z M73 166 h1 v1 h-1 z M77 166 h1 v1 h-1 z M1 167 h5 v1 h-5 z M9 167 h4 v1 h-4 z M34 167 h1 v1 h-1 z M71 167 h1 v1 h-1 z M75 167 h1 v1 h-1 z M1 168 h6 v1 h-6 z M10 168 h3 v1 h-3 z M21 168 h1 v1 h-1 z M69 168 h1 v1 h-1 z M73 168 h1 v1 h-1 z M1 169 h6 v1 h-6 z M10 169 h2 v1 h-2 z M67 169 h1 v1 h-1 z M1 170 h3 v1 h-3 z M5 170 h1 v1 h-1 z M7 170 h1 v1 h-1 z M10 170 h2 v1 h-2 z M28 170 h1 v1 h-1 z M1 171 h1 v1 h-1 z M7 171 h1 v1 h-1 z M10 171 h1 v1 h-1 z M23 171 h1 v1 h-1 z M67 171 h1 v1 h-1 z M2 172 h1 v1 h-1 z M10 172 h1 v1 h-1 z M27 172 h1 v1 h-1 z M65 172 h1 v1 h-1 z M8 173 h1 v1 h-1 z M61 173 h1 v1 h-1 z M8 174 h1 v1 h-1 z M60 174 h1 v1 h-1 z M62 174 h1 v1 h-1 z M4 175 h2 v1 h-2 z M59 175 h2 v1 h-2 z M5 176 h2 v1 h-2 z M11 176 h1 v1 h-1 z M58 176 h1 v1 h-1 z M5 177 h3 v1 h-3 z M9 177 h1 v1 h-1 z M11 177 h1 v1 h-1 z M55 177 h1 v1 h-1 z M6 178 h2 v1 h-2 z M22 178 h1 v1 h-1 z M24 178 h1 v1 h-1 z M53 178 h1 v1 h-1 z M57 178 h1 v1 h-1 z M11 179 h1 v1 h-1 z M52 179 h1 v1 h-1 z M56 179 h1 v1 h-1 z M10 180 h2 v1 h-2 z M54 180 h1 v1 h-1 z M11 181 h1 v1 h-1 z M25 181 h1 v1 h-1 z M52 181 h1 v1 h-1 z M47 182 h1 v1 h-1 z M50 182 h1 v1 h-1 z M18 183 h1 v1 h-1 z M21 183 h1 v1 h-1 z M24 183 h1 v1 h-1 z M46 183 h1 v1 h-1 z M12 184 h1 v1 h-1 z M47 184 h1 v1 h-1 z M12 185 h1 v1 h-1 z M23 185 h1 v1 h-1 z M43 185 h1 v1 h-1 z M12 186 h1 v1 h-1 z M46 186 h1 v1 h-1 z M14 187 h1 v1 h-1 z M22 187 h1 v1 h-1 z M48 187 h3 v1 h-3 z M14 188 h1 v1 h-1 z M43 188 h5 v1 h-5 z M38 189 h1 v1 h-1 z M40 189 h1 v1 h-1 z M13 190 h2 v1 h-2 z M20 190 h1 v1 h-1 z M36 190 h1 v1 h-1 z M39 190 h1 v1 h-1 z M13 191 h2 v1 h-2 z M35 191 h1 v1 h-1 z M13 192 h2 v1 h-2 z M19 192 h1 v1 h-1 z M13 193 h1 v1 h-1 z M32 193 h1 v1 h-1 z M13 194 h1 v1 h-1 z M15 194 h1 v1 h-1 z M13 195 h1 v1 h-1 z M29 195 h1 v1 h-1 z M33 195 h1 v1 h-1 z M28 196 h1 v1 h-1 z M32 196 h1 v1 h-1 z M27 197 h1 v1 h-1 z M30 197 h2 v1 h-2 z M14 198 h1 v1 h-1 z M26 198 h1 v1 h-1 z M29 198 h2 v1 h-2 z M25 199 h1 v1 h-1 z M27 199 h3 v1 h-3 z M24 200 h1 v1 h-1 z M26 200 h1 v1 h-1 z M23 201 h1 v1 h-1 z M25 201 h1 v1 h-1 z M16 202 h1 v1 h-1 z M22 202 h1 v1 h-1 z M25 202 h1 v1 h-1 z M27 202 h1 v1 h-1 z M24 203 h4 v1 h-4 z M21 204 h1 v1 h-1 z M23 204 h7 v1 h-7 z M11 205 h2 v1 h-2 z M23 205 h7 v1 h-7 z M31 205 h1 v1 h-1 z M11 206 h1 v1 h-1 z M22 206 h1 v1 h-1 z M25 206 h3 v1 h-3 z M19 207 h1 v1 h-1 z M21 207 h1 v1 h-1 z M18 208 h3 v1 h-3 z M9 209 h1 v1 h-1 z M17 209 h2 v1 h-2 z M13 210 h1 v1 h-1 z M13 211 h1 v1 h-1 z M8 212 h1 v1 h-1 z M12 212 h1 v1 h-1 z M14 212 h1 v1 h-1 z M16 212 h1 v1 h-1 z M12 213 h1 v1 h-1 z M16 213 h1 v1 h-1 z M16 214 h1 v1 h-1 z M16 215 h1 v1 h-1 z M15 216 h2 v1 h-2 z M10 217 h1 v1 h-1 z M15 217 h1 v1 h-1 z M6 218 h1 v1 h-1 z M15 218 h2 v1 h-2 z M15 219 h1 v1 h-1 z M14 220 h2 v1 h-2 z M5 221 h1 v1 h-1 z M14 221 h1 v1 h-1 z M13 222 h2 v1 h-2 z M13 223 h2 v1 h-2 z M4 224 h1 v1 h-1 z M13 224 h1 v1 h-1 z M12 225 h2 v1 h-2 z M6 226 h1 v1 h-1 z M12 226 h1 v1 h-1 z M2 229 h1 v1 h-1 z M10 229 h2 v1 h-2 z "/>
<path fill="#C8CBD1" d="M61 7 h1 v1 h-1 z M3 61 h1 v1 h-1 z M63 66 h1 v1 h-1 z M45 70 h1 v1 h-1 z M41 74 h1 v1 h-1 z M44 74 h1 v1 h-1 z M80 74 h1 v1 h-1 z M25 93 h1 v1 h-1 z M25 116 h1 v1 h-1 z M24 121 h1 v1 h-1 z M25 126 h1 v1 h-1 z M28 131 h1 v1 h-1 z M52 134 h1 v1 h-1 z M51 135 h1 v1 h-1 z M50 136 h1 v1 h-1 z M43 143 h1 v1 h-1 z M78 145 h1 v1 h-1 z M77 146 h1 v1 h-1 z M76 147 h1 v1 h-1 z M73 149 h1 v1 h-1 z M71 150 h1 v1 h-1 z M63 154 h1 v1 h-1 z M61 155 h1 v1 h-1 z M94 155 h2 v1 h-2 z M35 156 h1 v1 h-1 z M90 156 h1 v1 h-1 z M56 157 h1 v1 h-1 z M83 157 h5 v1 h-5 z M74 158 h8 v1 h-8 z M83 158 h2 v1 h-2 z M50 159 h1 v1 h-1 z M70 159 h2 v1 h-2 z M92 159 h1 v1 h-1 z M33 160 h1 v1 h-1 z M47 160 h1 v1 h-1 z M66 160 h5 v1 h-5 z M89 160 h3 v1 h-3 z M62 161 h8 v1 h-8 z M77 161 h1 v1 h-1 z M87 161 h3 v1 h-3 z M22 162 h1 v1 h-1 z M60 162 h10 v1 h-10 z M71 162 h7 v1 h-7 z M85 162 h4 v1 h-4 z M31 163 h1 v1 h-1 z M59 163 h2 v1 h-2 z M62 163 h16 v1 h-16 z M83 163 h5 v1 h-5 z M56 164 h4 v1 h-4 z M61 164 h16 v1 h-16 z M81 164 h1 v1 h-1 z M85 164 h2 v1 h-2 z M54 165 h21 v1 h-21 z M79 165 h1 v1 h-1 z M53 166 h20 v1 h-20 z M51 167 h11 v1 h-11 z M67 167 h2 v1 h-2 z M70 167 h1 v1 h-1 z M50 168 h11 v1 h-11 z M67 168 h2 v1 h-2 z M74 168 h1 v1 h-1 z M48 169 h5 v1 h-5 z M55 169 h5 v1 h-5 z M66 169 h1 v1 h-1 z M72 169 h1 v1 h-1 z M46 170 h6 v1 h-6 z M56 170 h3 v1 h-3 z M65 170 h1 v1 h-1 z M70 170 h1 v1 h-1 z M46 171 h5 v1 h-5 z M57 171 h1 v1 h-1 z M64 171 h1 v1 h-1 z M68 171 h1 v1 h-1 z M43 172 h2 v1 h-2 z M46 172 h2 v1 h-2 z M62 172 h1 v1 h-1 z M41 173 h6 v1 h-6 z M64 173 h1 v1 h-1 z M26 174 h1 v1 h-1 z M40 174 h6 v1 h-6 z M39 175 h7 v1 h-7 z M58 175 h1 v1 h-1 z M25 176 h1 v1 h-1 z M37 176 h10 v1 h-10 z M57 176 h1 v1 h-1 z M59 176 h1 v1 h-1 z M36 177 h10 v1 h-10 z M58 177 h1 v1 h-1 z M11 178 h1 v1 h-1 z M35 178 h11 v1 h-11 z M5 179 h1 v1 h-1 z M33 179 h13 v1 h-13 z M57 179 h9 v1 h-9 z M6 180 h1 v1 h-1 z M33 180 h5 v1 h-5 z M41 180 h4 v1 h-4 z M50 180 h1 v1 h-1 z M55 180 h7 v1 h-7 z M7 181 h2 v1 h-2 z M10 181 h1 v1 h-1 z M32 181 h7 v1 h-7 z M40 181 h5 v1 h-5 z M48 181 h1 v1 h-1 z M8 182 h1 v1 h-1 z M11 182 h1 v1 h-1 z M22 182 h1 v1 h-1 z M30 182 h8 v1 h-8 z M40 182 h3 v1 h-3 z M51 182 h1 v1 h-1 z M11 183 h2 v1 h-2 z M30 183 h8 v1 h-8 z M41 183 h2 v1 h-2 z M45 183 h1 v1 h-1 z M49 183 h1 v1 h-1 z M11 184 h1 v1 h-1 z M29 184 h9 v1 h-9 z M41 184 h2 v1 h-2 z M44 184 h1 v1 h-1 z M13 185 h1 v1 h-1 z M29 185 h9 v1 h-9 z M40 185 h3 v1 h-3 z M46 185 h1 v1 h-1 z M28 186 h10 v1 h-10 z M40 186 h2 v1 h-2 z M47 186 h4 v1 h-4 z M12 187 h1 v1 h-1 z M28 187 h9 v1 h-9 z M40 187 h1 v1 h-1 z M51 187 h3 v1 h-3 z M28 188 h9 v1 h-9 z M39 188 h1 v1 h-1 z M48 188 h5 v1 h-5 z M28 189 h7 v1 h-7 z M37 189 h1 v1 h-1 z M41 189 h1 v1 h-1 z M43 189 h4 v1 h-4 z M28 190 h6 v1 h-6 z M35 190 h1 v1 h-1 z M43 190 h3 v1 h-3 z M28 191 h7 v1 h-7 z M38 191 h1 v1 h-1 z M42 191 h4 v1 h-4 z M27 192 h7 v1 h-7 z M37 192 h3 v1 h-3 z M42 192 h2 v1 h-2 z M14 193 h1 v1 h-1 z M26 193 h6 v1 h-6 z M36 193 h5 v1 h-5 z M27 194 h4 v1 h-4 z M35 194 h6 v1 h-6 z M25 195 h4 v1 h-4 z M34 195 h6 v1 h-6 z M53 195 h2 v1 h-2 z M12 196 h1 v1 h-1 z M26 196 h2 v1 h-2 z M33 196 h8 v1 h-8 z M51 196 h2 v1 h-2 z M12 197 h2 v1 h-2 z M26 197 h1 v1 h-1 z M32 197 h10 v1 h-10 z M49 197 h2 v1 h-2 z M25 198 h1 v1 h-1 z M31 198 h11 v1 h-11 z M43 198 h1 v1 h-1 z M46 198 h4 v1 h-4 z M12 199 h1 v1 h-1 z M23 199 h2 v1 h-2 z M30 199 h18 v1 h-18 z M23 200 h1 v1 h-1 z M27 200 h19 v1 h-19 z M12 201 h1 v1 h-1 z M22 201 h1 v1 h-1 z M26 201 h17 v1 h-17 z M12 202 h2 v1 h-2 z M21 202 h1 v1 h-1 z M26 202 h1 v1 h-1 z M28 202 h13 v1 h-13 z M21 203 h1 v1 h-1 z M28 203 h11 v1 h-11 z M12 204 h1 v1 h-1 z M20 204 h1 v1 h-1 z M30 204 h7 v1 h-7 z M15 205 h1 v1 h-1 z M19 205 h2 v1 h-2 z M30 205 h1 v1 h-1 z M32 205 h2 v1 h-2 z M18 206 h2 v1 h-2 z M23 206 h2 v1 h-2 z M28 206 h3 v1 h-3 z M17 207 h2 v1 h-2 z M22 207 h6 v1 h-6 z M9 208 h1 v1 h-1 z M17 208 h1 v1 h-1 z M21 208 h1 v1 h-1 z M16 209 h1 v1 h-1 z M19 209 h1 v1 h-1 z M14 210 h4 v1 h-4 z M14 211 h4 v1 h-4 z M15 212 h1 v1 h-1 z M17 212 h1 v1 h-1 z M13 213 h3 v1 h-3 z M17 213 h1 v1 h-1 z M7 214 h1 v1 h-1 z M12 214 h1 v1 h-1 z M14 214 h2 v1 h-2 z M17 214 h1 v1 h-1 z M15 215 h1 v1 h-1 z M17 215 h1 v1 h-1 z M17 216 h1 v1 h-1 z M11 217 h2 v1 h-2 z M14 217 h1 v1 h-1 z M10 218 h5 v1 h-5 z M10 219 h5 v1 h-5 z M16 219 h1 v1 h-1 z M9 220 h5 v1 h-5 z M9 221 h5 v1 h-5 z M15 221 h1 v1 h-1 z M8 222 h5 v1 h-5 z M15 222 h1 v1 h-1 z M9 223 h4 v1 h-4 z M7 224 h1 v1 h-1 z M9 224 h4 v1 h-4 z M14 224 h1 v1 h-1 z M8 225 h4 v1 h-4 z M14 225 h1 v1 h-1 z M9 226 h3 v1 h-3 z M13 226 h1 v1 h-1 z M8 227 h5 v1 h-5 z M9 228 h4 v1 h-4 z M8 229 h2 v1 h-2 z M12 229 h1 v1 h-1 z M2 230 h1 v1 h-1 z M11 230 h1 v1 h-1 z "/>
<path fill="#E0E4E7" d="M55 13 h1 v1 h-1 z M66 23 h1 v1 h-1 z M47 25 h1 v1 h-1 z M44 31 h1 v1 h-1 z M64 32 h1 v1 h-1 z M63 35 h1 v1 h-1 z M41 40 h1 v1 h-1 z M0 48 h1 v1 h-1 z M3 50 h1 v1 h-1 z M4 51 h1 v1 h-1 z M0 52 h3 v1 h-3 z M5 52 h1 v1 h-1 z M1 53 h1 v1 h-1 z M4 53 h1 v1 h-1 z M7 53 h1 v1 h-1 z M4 54 h1 v1 h-1 z M8 54 h1 v1 h-1 z M4 55 h1 v1 h-1 z M9 55 h1 v1 h-1 z M10 56 h1 v1 h-1 z M11 57 h1 v1 h-1 z M12 58 h1 v1 h-1 z M13 59 h1 v1 h-1 z M75 60 h1 v1 h-1 z M14 61 h1 v1 h-1 z M14 62 h1 v1 h-1 z M15 63 h1 v1 h-1 z M14 64 h2 v1 h-2 z M14 65 h3 v1 h-3 z M49 65 h1 v1 h-1 z M13 66 h5 v1 h-5 z M13 67 h3 v1 h-3 z M17 67 h1 v1 h-1 z M47 67 h1 v1 h-1 z M84 67 h1 v1 h-1 z M12 68 h7 v1 h-7 z M60 68 h1 v1 h-1 z M12 69 h4 v1 h-4 z M19 69 h1 v1 h-1 z M12 70 h4 v1 h-4 z M19 70 h1 v1 h-1 z M11 71 h6 v1 h-6 z M20 71 h1 v1 h-1 z M12 72 h5 v1 h-5 z M20 72 h1 v1 h-1 z M6 73 h1 v1 h-1 z M12 73 h5 v1 h-5 z M21 73 h1 v1 h-1 z M6 74 h2 v1 h-2 z M13 74 h5 v1 h-5 z M21 74 h1 v1 h-1 z M7 75 h1 v1 h-1 z M44 75 h1 v1 h-1 z M22 76 h1 v1 h-1 z M52 76 h1 v1 h-1 z M51 77 h1 v1 h-1 z M23 78 h1 v1 h-1 z M50 78 h1 v1 h-1 z M23 79 h1 v1 h-1 z M73 81 h1 v1 h-1 z M24 82 h1 v1 h-1 z M48 83 h1 v1 h-1 z M0 84 h1 v1 h-1 z M1 85 h1 v1 h-1 z M25 85 h1 v1 h-1 z M25 86 h1 v1 h-1 z M25 87 h1 v1 h-1 z M3 89 h1 v1 h-1 z M58 89 h1 v1 h-1 z M43 92 h1 v1 h-1 z M51 92 h1 v1 h-1 z M26 94 h1 v1 h-1 z M47 94 h1 v1 h-1 z M6 95 h1 v1 h-1 z M26 95 h1 v1 h-1 z M26 96 h1 v1 h-1 z M8 98 h1 v1 h-1 z M10 101 h1 v1 h-1 z M12 104 h1 v1 h-1 z M13 105 h1 v1 h-1 z M15 108 h1 v1 h-1 z M26 108 h1 v1 h-1 z M16 109 h1 v1 h-1 z M35 117 h1 v1 h-1 z M0 125 h1 v1 h-1 z M2 127 h1 v1 h-1 z M3 128 h1 v1 h-1 z M65 128 h3 v1 h-3 z M82 128 h1 v1 h-1 z M32 129 h1 v1 h-1 z M60 129 h1 v1 h-1 z M88 129 h5 v1 h-5 z M57 130 h1 v1 h-1 z M93 130 h1 v1 h-1 z M5 131 h1 v1 h-1 z M55 131 h1 v1 h-1 z M95 131 h1 v1 h-1 z M97 132 h1 v1 h-1 z M99 132 h1 v1 h-1 z M52 133 h1 v1 h-1 z M7 134 h1 v1 h-1 z M49 135 h1 v1 h-1 z M8 136 h1 v1 h-1 z M48 136 h1 v1 h-1 z M92 136 h1 v1 h-1 z M9 137 h1 v1 h-1 z M47 137 h1 v1 h-1 z M26 138 h1 v1 h-1 z M46 138 h1 v1 h-1 z M88 138 h1 v1 h-1 z M10 139 h1 v1 h-1 z M45 139 h1 v1 h-1 z M44 140 h1 v1 h-1 z M86 140 h1 v1 h-1 z M85 141 h1 v1 h-1 z M11 142 h1 v1 h-1 z M42 143 h1 v1 h-1 z M82 143 h1 v1 h-1 z M12 144 h1 v1 h-1 z M40 146 h1 v1 h-1 z M39 147 h1 v1 h-1 z M76 148 h1 v1 h-1 z M14 149 h1 v1 h-1 z M74 149 h1 v1 h-1 z M37 150 h1 v1 h-1 z M24 151 h1 v1 h-1 z M69 152 h1 v1 h-1 z M15 153 h1 v1 h-1 z M67 153 h1 v1 h-1 z M35 154 h1 v1 h-1 z M65 154 h1 v1 h-1 z M95 154 h4 v1 h-4 z M62 155 h1 v1 h-1 z M97 155 h1 v1 h-1 z M60 156 h1 v1 h-1 z M83 156 h3 v1 h-3 z M16 157 h1 v1 h-1 z M57 157 h1 v1 h-1 z M76 157 h2 v1 h-2 z M16 158 h1 v1 h-1 z M55 158 h1 v1 h-1 z M69 158 h1 v1 h-1 z M94 158 h1 v1 h-1 z M16 159 h1 v1 h-1 z M66 159 h1 v1 h-1 z M93 159 h1 v1 h-1 z M16 160 h1 v1 h-1 z M49 160 h1 v1 h-1 z M62 160 h1 v1 h-1 z M92 160 h1 v1 h-1 z M16 161 h1 v1 h-1 z M25 161 h1 v1 h-1 z M46 161 h2 v1 h-2 z M60 161 h1 v1 h-1 z M91 161 h1 v1 h-1 z M16 162 h1 v1 h-1 z M42 162 h1 v1 h-1 z M90 162 h1 v1 h-1 z M16 163 h1 v1 h-1 z M40 163 h1 v1 h-1 z M56 163 h1 v1 h-1 z M89 163 h1 v1 h-1 z M16 164 h1 v1 h-1 z M16 165 h1 v1 h-1 z M52 165 h1 v1 h-1 z M16 166 h1 v1 h-1 z M50 166 h1 v1 h-1 z M24 167 h1 v1 h-1 z M48 167 h2 v1 h-2 z M86 167 h1 v1 h-1 z M34 168 h1 v1 h-1 z M47 168 h1 v1 h-1 z M85 168 h1 v1 h-1 z M33 169 h1 v1 h-1 z M84 169 h1 v1 h-1 z M15 170 h1 v1 h-1 z M32 170 h1 v1 h-1 z M44 170 h1 v1 h-1 z M76 170 h2 v1 h-2 z M82 170 h2 v1 h-2 z M27 171 h1 v1 h-1 z M70 171 h10 v1 h-10 z M82 171 h1 v1 h-1 z M14 172 h1 v1 h-1 z M41 172 h1 v1 h-1 z M60 172 h1 v1 h-1 z M69 172 h7 v1 h-7 z M78 172 h2 v1 h-2 z M39 173 h1 v1 h-1 z M59 173 h1 v1 h-1 z M65 173 h2 v1 h-2 z M69 173 h8 v1 h-8 z M78 173 h2 v1 h-2 z M81 173 h1 v1 h-1 z M23 174 h1 v1 h-1 z M38 174 h1 v1 h-1 z M64 174 h3 v1 h-3 z M68 174 h11 v1 h-11 z M80 174 h1 v1 h-1 z M0 175 h1 v1 h-1 z M13 175 h1 v1 h-1 z M62 175 h1 v1 h-1 z M64 175 h14 v1 h-14 z M79 175 h1 v1 h-1 z M1 176 h1 v1 h-1 z M53 176 h1 v1 h-1 z M61 176 h4 v1 h-4 z M66 176 h10 v1 h-10 z M78 176 h1 v1 h-1 z M34 177 h1 v1 h-1 z M52 177 h2 v1 h-2 z M60 177 h15 v1 h-15 z M77 177 h1 v1 h-1 z M2 178 h1 v1 h-1 z M33 178 h1 v1 h-1 z M69 178 h2 v1 h-2 z M76 178 h1 v1 h-1 z M3 179 h1 v1 h-1 z M32 179 h1 v1 h-1 z M75 179 h1 v1 h-1 z M31 180 h1 v1 h-1 z M74 180 h1 v1 h-1 z M30 181 h1 v1 h-1 z M73 181 h1 v1 h-1 z M29 182 h1 v1 h-1 z M53 182 h11 v1 h-11 z M8 183 h1 v1 h-1 z M28 183 h1 v1 h-1 z M51 183 h5 v1 h-5 z M57 183 h8 v1 h-8 z M10 184 h1 v1 h-1 z M13 184 h1 v1 h-1 z M50 184 h5 v1 h-5 z M58 184 h7 v1 h-7 z M70 184 h1 v1 h-1 z M17 185 h1 v1 h-1 z M27 185 h1 v1 h-1 z M51 185 h5 v1 h-5 z M57 185 h7 v1 h-7 z M69 185 h1 v1 h-1 z M23 186 h1 v1 h-1 z M55 186 h4 v1 h-4 z M60 186 h5 v1 h-5 z M68 186 h1 v1 h-1 z M26 187 h1 v1 h-1 z M56 187 h1 v1 h-1 z M62 187 h2 v1 h-2 z M67 187 h1 v1 h-1 z M15 188 h1 v1 h-1 z M55 188 h2 v1 h-2 z M66 188 h1 v1 h-1 z M12 189 h1 v1 h-1 z M21 189 h1 v1 h-1 z M25 189 h1 v1 h-1 z M54 189 h3 v1 h-3 z M12 190 h1 v1 h-1 z M15 190 h1 v1 h-1 z M25 190 h1 v1 h-1 z M63 190 h1 v1 h-1 z M12 191 h1 v1 h-1 z M15 191 h1 v1 h-1 z M24 191 h1 v1 h-1 z M62 191 h1 v1 h-1 z M12 192 h1 v1 h-1 z M15 192 h1 v1 h-1 z M19 193 h1 v1 h-1 z M23 193 h1 v1 h-1 z M59 193 h1 v1 h-1 z M22 194 h1 v1 h-1 z M57 194 h1 v1 h-1 z M22 195 h1 v1 h-1 z M56 195 h1 v1 h-1 z M18 196 h1 v1 h-1 z M55 196 h1 v1 h-1 z M21 197 h1 v1 h-1 z M53 197 h1 v1 h-1 z M11 198 h1 v1 h-1 z M20 198 h2 v1 h-2 z M51 198 h1 v1 h-1 z M13 199 h1 v1 h-1 z M20 199 h1 v1 h-1 z M49 199 h1 v1 h-1 z M13 200 h1 v1 h-1 z M17 200 h1 v1 h-1 z M20 200 h1 v1 h-1 z M47 200 h1 v1 h-1 z M19 201 h2 v1 h-2 z M45 201 h1 v1 h-1 z M19 202 h1 v1 h-1 z M43 202 h1 v1 h-1 z M17 203 h2 v1 h-2 z M17 204 h1 v1 h-1 z M38 204 h1 v1 h-1 z M16 205 h1 v1 h-1 z M33 206 h1 v1 h-1 z M15 207 h1 v1 h-1 z M29 207 h1 v1 h-1 z M26 208 h1 v1 h-1 z M22 209 h1 v1 h-1 z M19 210 h1 v1 h-1 z M18 212 h1 v1 h-1 z M7 213 h1 v1 h-1 z M18 214 h1 v1 h-1 z M17 218 h1 v1 h-1 z M17 219 h1 v1 h-1 z M16 221 h1 v1 h-1 z M15 224 h1 v1 h-1 z M14 226 h1 v1 h-1 z M2 228 h1 v1 h-1 z M6 230 h1 v1 h-1 z "/>
<path fill="#D2D4DA" d="M63 4 h1 v1 h-1 z M66 22 h1 v1 h-1 z M62 37 h1 v1 h-1 z M10 58 h1 v1 h-1 z M12 60 h1 v1 h-1 z M12 62 h1 v1 h-1 z M22 78 h1 v1 h-1 z M22 79 h1 v1 h-1 z M42 84 h1 v1 h-1 z M41 89 h1 v1 h-1 z M37 109 h1 v1 h-1 z M50 135 h1 v1 h-1 z M49 136 h1 v1 h-1 z M29 139 h1 v1 h-1 z M39 148 h1 v1 h-1 z M66 153 h1 v1 h-1 z M15 155 h1 v1 h-1 z M93 155 h1 v1 h-1 z M96 155 h1 v1 h-1 z M59 156 h1 v1 h-1 z M87 156 h3 v1 h-3 z M95 156 h1 v1 h-1 z M81 157 h2 v1 h-2 z M94 157 h1 v1 h-1 z M54 158 h1 v1 h-1 z M72 158 h2 v1 h-2 z M93 158 h1 v1 h-1 z M68 159 h2 v1 h-2 z M65 160 h1 v1 h-1 z M90 161 h1 v1 h-1 z M89 162 h1 v1 h-1 z M58 163 h1 v1 h-1 z M88 163 h1 v1 h-1 z M55 164 h1 v1 h-1 z M82 164 h3 v1 h-3 z M87 164 h1 v1 h-1 z M53 165 h1 v1 h-1 z M80 165 h7 v1 h-7 z M52 166 h1 v1 h-1 z M78 166 h2 v1 h-2 z M82 166 h5 v1 h-5 z M21 167 h1 v1 h-1 z M50 167 h1 v1 h-1 z M62 167 h5 v1 h-5 z M69 167 h1 v1 h-1 z M76 167 h1 v1 h-1 z M49 168 h1 v1 h-1 z M61 168 h6 v1 h-6 z M75 168 h1 v1 h-1 z M47 169 h1 v1 h-1 z M53 169 h2 v1 h-2 z M60 169 h6 v1 h-6 z M45 170 h1 v1 h-1 z M52 170 h4 v1 h-4 z M59 170 h5 v1 h-5 z M31 171 h1 v1 h-1 z M44 171 h2 v1 h-2 z M51 171 h6 v1 h-6 z M58 171 h2 v1 h-2 z M63 171 h1 v1 h-1 z M30 172 h1 v1 h-1 z M42 172 h1 v1 h-1 z M45 172 h1 v1 h-1 z M48 172 h11 v1 h-11 z M66 172 h1 v1 h-1 z M23 173 h1 v1 h-1 z M40 173 h1 v1 h-1 z M47 173 h6 v1 h-6 z M55 173 h3 v1 h-3 z M39 174 h1 v1 h-1 z M46 174 h7 v1 h-7 z M55 174 h2 v1 h-2 z M59 174 h1 v1 h-1 z M38 175 h1 v1 h-1 z M46 175 h6 v1 h-6 z M55 175 h2 v1 h-2 z M61 175 h1 v1 h-1 z M36 176 h1 v1 h-1 z M47 176 h4 v1 h-4 z M56 176 h1 v1 h-1 z M35 177 h1 v1 h-1 z M46 177 h5 v1 h-5 z M54 177 h1 v1 h-1 z M34 178 h1 v1 h-1 z M46 178 h4 v1 h-4 z M58 178 h1 v1 h-1 z M61 178 h1 v1 h-1 z M63 178 h3 v1 h-3 z M46 179 h3 v1 h-3 z M51 179 h1 v1 h-1 z M66 179 h2 v1 h-2 z M32 180 h1 v1 h-1 z M38 180 h3 v1 h-3 z M45 180 h2 v1 h-2 z M49 180 h1 v1 h-1 z M62 180 h4 v1 h-4 z M31 181 h1 v1 h-1 z M39 181 h1 v1 h-1 z M45 181 h2 v1 h-2 z M53 181 h1 v1 h-1 z M56 181 h3 v1 h-3 z M60 181 h1 v1 h-1 z M12 182 h1 v1 h-1 z M18 182 h1 v1 h-1 z M38 182 h2 v1 h-2 z M43 182 h4 v1 h-4 z M10 183 h1 v1 h-1 z M29 183 h1 v1 h-1 z M38 183 h3 v1 h-3 z M43 183 h2 v1 h-2 z M38 184 h3 v1 h-3 z M43 184 h1 v1 h-1 z M48 184 h1 v1 h-1 z M28 185 h1 v1 h-1 z M38 185 h2 v1 h-2 z M47 185 h3 v1 h-3 z M38 186 h2 v1 h-2 z M51 186 h1 v1 h-1 z M27 187 h1 v1 h-1 z M37 187 h3 v1 h-3 z M27 188 h1 v1 h-1 z M37 188 h2 v1 h-2 z M53 188 h1 v1 h-1 z M26 189 h2 v1 h-2 z M35 189 h2 v1 h-2 z M42 189 h1 v1 h-1 z M47 189 h6 v1 h-6 z M26 190 h2 v1 h-2 z M34 190 h1 v1 h-1 z M40 190 h3 v1 h-3 z M46 190 h3 v1 h-3 z M61 190 h1 v1 h-1 z M25 191 h3 v1 h-3 z M39 191 h3 v1 h-3 z M46 191 h3 v1 h-3 z M60 191 h1 v1 h-1 z M25 192 h2 v1 h-2 z M40 192 h2 v1 h-2 z M44 192 h4 v1 h-4 z M51 192 h3 v1 h-3 z M57 192 h3 v1 h-3 z M25 193 h1 v1 h-1 z M41 193 h17 v1 h-17 z M24 194 h3 v1 h-3 z M41 194 h16 v1 h-16 z M12 195 h1 v1 h-1 z M24 195 h1 v1 h-1 z M40 195 h13 v1 h-13 z M55 195 h1 v1 h-1 z M24 196 h2 v1 h-2 z M41 196 h10 v1 h-10 z M53 196 h1 v1 h-1 z M23 197 h3 v1 h-3 z M42 197 h7 v1 h-7 z M51 197 h2 v1 h-2 z M22 198 h3 v1 h-3 z M42 198 h1 v1 h-1 z M44 198 h2 v1 h-2 z M50 198 h1 v1 h-1 z M22 199 h1 v1 h-1 z M48 199 h1 v1 h-1 z M21 200 h2 v1 h-2 z M46 200 h1 v1 h-1 z M21 201 h1 v1 h-1 z M43 201 h1 v1 h-1 z M41 202 h1 v1 h-1 z M20 203 h1 v1 h-1 z M39 203 h1 v1 h-1 z M10 204 h1 v1 h-1 z M19 204 h1 v1 h-1 z M37 204 h1 v1 h-1 z M18 205 h1 v1 h-1 z M34 205 h1 v1 h-1 z M17 206 h1 v1 h-1 z M31 206 h1 v1 h-1 z M28 207 h1 v1 h-1 z M15 208 h2 v1 h-2 z M22 208 h3 v1 h-3 z M14 209 h2 v1 h-2 z M18 210 h1 v1 h-1 z M8 211 h1 v1 h-1 z M12 215 h3 v1 h-3 z M12 216 h3 v1 h-3 z M13 217 h1 v1 h-1 z M17 217 h1 v1 h-1 z M16 220 h1 v1 h-1 z M8 223 h1 v1 h-1 z M15 223 h1 v1 h-1 z M8 224 h1 v1 h-1 z M7 225 h1 v1 h-1 z M3 226 h1 v1 h-1 z M7 226 h2 v1 h-2 z M7 227 h1 v1 h-1 z M13 227 h1 v1 h-1 z M7 228 h2 v1 h-2 z M5 229 h1 v1 h-1 z M10 230 h1 v1 h-1 z "/>
</g></svg>

